<?xml version="1.0" encoding="utf-8"?><svg version="1.2" baseProfile="tiny" id="Layer_1" xmlns="http://www.w3.org/2000/svg" xmlns:xlink="http://www.w3.org/1999/xlink" x="0px" y="0px" viewBox="0 0 688.16 858.15" overflow="visible" xml:space="preserve"><g><ellipse fill="#DDDDDD" cx="332.82" cy="837.33" rx="172.3" ry="20.81"/><g><path fill="#1D7642" d="M686.02,584.99c5.26,16.27,0.71,34.48-12.32,46.33c-44.99,40.91-152.08,116.39-329.62,116.39c-177.53,0-284.62-75.48-329.62-116.39C1.43,619.47-3.12,601.26,2.14,584.99H686.02z"/><path fill="#F3E9A4" d="M666.82,548.86l15.71,28.12c1.44,2.59,2.61,5.27,3.49,8.01c-2.3,7.16-6.45,13.78-12.32,19.11c-44.99,40.91-152.08,116.39-329.62,116.39c-177.53,0-284.62-75.48-329.62-116.39c-5.87-5.34-10.02-11.95-12.32-19.11c0.88-2.73,2.05-5.42,3.49-8.01l15.71-28.12H666.82z"/><path fill="#F01B4C" d="M666.82,548.86c-56.98,56-162.73,130.28-322.74,130.28S78.32,604.86,21.34,548.86l14.82-26.53l284-508.3c10.46-18.71,37.38-18.71,47.84,0l284,508.3L666.82,548.86z"/><path fill="#281F1F" d="M269.75,543.85c0,7.83-6.35,14.18-14.18,14.18s-14.18-6.35-14.18-14.18c0-7.83,6.35-27.07,14.18-27.07S269.75,536.02,269.75,543.85z"/><path fill="#281F1F" d="M438.44,433.22c0,7.83-6.35,14.18-14.18,14.18c-7.83,0-14.18-6.35-14.18-14.18c0-7.83,6.35-27.07,14.18-27.07C432.09,406.15,438.44,425.39,438.44,433.22z"/><path fill="#281F1F" d="M331.51,453.34c0,7.83-6.35,14.18-14.18,14.18c-7.83,0-14.18-6.35-14.18-14.18s6.35-27.07,14.18-27.07C325.16,426.27,331.51,445.51,331.51,453.34z"/><path fill="#281F1F" d="M474.43,539c0,7.83-6.35,14.18-14.18,14.18c-7.83,0-14.18-6.35-14.18-14.18c0-7.83,6.35-27.07,14.18-27.07C468.09,511.93,474.43,531.17,474.43,539z"/><path fill="#281F1F" d="M342,317.35c0,7.83-6.35,14.18-14.18,14.18s-14.18-6.35-14.18-14.18s6.35-27.07,14.18-27.07S342,309.52,342,317.35z"/><path fill="#281F1F" d="M364.12,124.09c0,7.83-6.35,14.18-14.18,14.18c-7.83,0-14.18-6.35-14.18-14.18s6.35-27.07,14.18-27.07C357.77,97.02,364.12,116.26,364.12,124.09z"/><path fill="#281F1F" d="M251.72,323.59c0,7.83-6.35,14.18-14.18,14.18s-14.18-6.35-14.18-14.18c0-7.83,6.35-27.07,14.18-27.07S251.72,315.76,251.72,323.59z"/><path fill="#281F1F" d="M461.95,316.28c0,7.83-6.35,14.18-14.18,14.18s-14.18-6.35-14.18-14.18c0-7.83,6.35-27.07,14.18-27.07S461.95,308.45,461.95,316.28z"/><path fill="#281F1F" d="M301.67,225.76c0,7.83-6.35,14.18-14.18,14.18s-14.18-6.35-14.18-14.18c0-7.83,6.35-27.07,14.18-27.07S301.67,217.93,301.67,225.76z"/><path fill="#281F1F" d="M413.38,210.82c0,7.83-6.35,14.18-14.18,14.18c-7.83,0-14.18-6.35-14.18-14.18c0-7.83,6.35-27.07,14.18-27.07C407.03,183.74,413.38,202.98,413.38,210.82z"/><path fill="#281F1F" d="M218.41,443.25c0,7.83-6.35,14.18-14.18,14.18c-7.83,0-14.18-6.35-14.18-14.18s6.35-27.07,14.18-27.07C212.06,416.18,218.41,435.42,218.41,443.25z"/><path fill="#281F1F" d="M373.92,598.67c0,7.83-6.35,14.18-14.18,14.18c-7.83,0-14.18-6.35-14.18-14.18s6.35-27.07,14.18-27.07C367.57,571.59,373.92,590.83,373.92,598.67z"/><path fill="#281F1F" d="M132.38,528.97c0,7.83-6.35,14.18-14.18,14.18s-14.18-6.35-14.18-14.18c0-7.83,6.35-27.07,14.18-27.07S132.38,521.14,132.38,528.97z"/><path fill="#281F1F" d="M525.08,421.05c0,7.83-6.35,14.18-14.18,14.18s-14.18-6.35-14.18-14.18c0-7.83,6.35-27.07,14.18-27.07S525.08,413.21,525.08,421.05z"/><path fill="#281F1F" d="M587.62,531.05c0,7.83-6.35,14.18-14.18,14.18c-7.83,0-14.18-6.35-14.18-14.18s6.35-27.07,14.18-27.07C581.27,503.98,587.62,523.22,587.62,531.05z"/></g></g></svg>
