<?xml version="1.0" encoding="utf-8"?>
<svg version="1.2" baseProfile="tiny" id="Onigiri" xmlns="http://www.w3.org/2000/svg" xmlns:xlink="http://www.w3.org/1999/xlink"
	 x="0px" y="0px" viewBox="0 0 2122 2122" overflow="visible" xml:space="preserve">
<path fill="#F6E8D6" d="M1019.92,391.53c5.15-5.52,11.68-10.75,19.24-10.63c12.75,0.2,8.13,16.21,18.13,14.01
	c6.48-1.42,13.67,3.3,14.94,9.82c3.58-6.79,12.21-10.45,19.58-8.29c7.37,2.16,12.66,9.91,12,17.55c5.67-2.99,11.62-6.05,18.03-6.05
	c6.41,0,13.3,4.19,14.02,10.56c0.55,4.89-2.52,9.39-5.59,13.23c9.21-6.45,24.24,3.41,21.99,14.42c2.28-9.36,7.45-20.96,17.06-20.17
	c5.88,0.48,10.29,6.07,11.41,11.86c1.13,5.79-0.29,11.73-1.69,17.45c6.79-5.84,14.3-11.98,23.25-12.39
	c8.95-0.4,18.51,8.41,15.2,16.73c-1.24,3.1-3.89,5.37-6.46,7.5c-4.74,3.96-9.49,7.92-14.23,11.89c7.9-2.36,17.15,0.83,21.91,7.57
	c6.51,9.22,2.45,15.77-2.23,23.93c9.94-1.35,19.38,9.58,16.6,19.22c7.54-1.56,15.84,1.52,20.53,7.62c4.69,6.1,5.52,14.92,2.07,21.8
	c3.74-8.48,17.69-6.81,22.69,1.01c4.99,7.81,3.56,18,1.26,26.99c5.52-9.17,20.05-11.12,27.69-3.62c7.63,7.5,5.86,22.2-3.41,27.56
	c9.16-3.81,21.52-1.15,25.88,7.77c4.24,8.67-2.9,18.5-11.59,19.95c4.28,7.1,13.58,14.88,6.02,24.37c7.59-1.89,16.19,1.36,20.63,7.8
	c4.44,6.44,4.42,15.64-0.05,22.06c8.78-3.08,19.67-2.25,25.96,4.62c6.29,6.87,4.67,20.19-4.15,23.21c8.82,0.32,18.1,0.78,25.6,5.43
	c2.35,1.46,4.56,3.43,5.44,6.06c1.43,4.28-1.16,9.07-4.88,11.61c-3.72,2.55-8.32,3.36-12.77,4.12c6.47,1.54,13.37,4.4,16.19,10.43
	c4.11,8.8-7.1,13.84-12.53,18.41c8.25-5.05,18.84-6.08,27.9-2.71c3.32,1.24,6.72,3.39,7.61,6.82c1.12,4.31-2.26,8.55-6.03,10.92
	c-3.77,2.37-8.2,3.79-11.39,6.9c5.19,0.4,9.53,3.76,12.14,8.2c3.26,5.55,3.84,12.78,0.03,18.07c6.65-4.85,17.32-2.84,21.49,4.25
	c4.17,7.09,0.47,17.63-7.32,20.28c5.81-2.51,11.81-5.06,18.13-5.14c6.32-0.07,13.13,2.97,15.55,8.81
	c2.18,5.25,0.29,11.49-3.27,15.92c-3.56,4.43-8.56,7.44-13.44,10.35c9.86,1.26,18.93,7.6,23.5,16.43c0.86,1.65,1.58,3.48,1.38,5.33
	c-0.83,7.77-14.81,7.55-20.32,8.69c8.83,3.31,12.09,16.27,5.88,23.37c7.17-0.31,14.37,3.73,17.82,10.03
	c3.46,6.3,3.01,14.54-1.11,20.42c3.25-4.35,10.94-2.45,13.45,2.36c2.51,4.81,1.09,10.79-1.52,15.56c7.98-3.2,17.9-0.65,23.35,5.99
	c1.76,2.15,3.11,4.77,3.17,7.54c0.09,4.49-3.26,8.48-7.26,10.51c-4.45,2.25-9.88,2.52-14.48,3.23c0.25,1.55,1.33,1.87,2.85,2.26
	c7.22,1.86,9.14,13.38,2.92,17.48c6.25-1.2,13.09,1.95,16.24,7.47c3.16,5.52,2.41,13.01-1.79,17.79c5.01-2.64,10.3-5.34,15.96-5.18
	c5.66,0.17,11.62,4.35,11.63,10.01c0,2.31-0.96,4.51-2.06,6.54c-2.89,5.33-6.89,10.07-11.66,13.82c5.99,0.95,11.82,2.87,17.21,5.66
	c4.68,2.42,9.26,5.82,11.05,10.78c1.92,5.37-0.2,11.91-4.92,15.12c-4.37,2.97-10.16,0.09-12.39,4.29
	c-2.25,4.24,4.28,10.03-0.91,15.67c6.87-0.88,14.09,3.13,16.96,9.44c2.87,6.3,1.16,14.39-4.01,18.99c6.49-0.9,13.35,3.05,15.82,9.13
	c2.47,6.08,0.32,13.7-4.96,17.58c7.86,0.01,14.08,9.4,11.02,16.64c7.62-3,18.31-5,22.25,2.18c2.22,4.04,0.79,9.17-1.66,13.07
	c-2.46,3.9-5.87,7.17-8.06,11.23c5.52,1.19,10.69,5.76,10.78,11.4c0.11,6.49-7,9.89-12.36,7.67c2.16,5.66,11.66,13.29,4.21,19.39
	c5.68,0.84,10.76,4.87,12.87,10.21c2.11,5.33,1.15,11.76-2.42,16.25c5.36-3.56,13.45,0.08,15.6,6.15
	c2.15,6.07-0.74,13.11-5.68,17.25c7.57-0.71,16.89-0.57,20.63,6.06c2.46,4.36,1.24,10.04-1.67,14.11c-2.9,4.07-7.22,6.88-11.42,9.59
	c6.15,3.6,13.18,8.91,12.16,15.96c-0.98,6.71-4.77,11.12-8.33,16.65c4.83-1.75,10.78,0.63,13.07,5.22
	c2.29,4.59,0.61,10.78-3.69,13.58c7.28-3.06,17.58-5.22,21.5,1.65c4.15,7.3-4.1,15.25-11.28,19.61c5.01,3.13,10.14,6.36,13.69,11.09
	c3.54,4.73,5.18,11.36,2.52,16.63c-2.67,5.27-10.51,7.69-14.84,3.67c3.43,5.35,6.92,10.82,8.5,16.98
	c1.58,6.16,0.95,13.24-3.19,18.07c6.36,3.76,10.5,11.01,10.51,18.4c0.01,7.39-4.12,14.64-10.47,18.41
	c7.92-0.83,14.08,8.45,12.57,16.27c-1.51,7.82-8.23,13.63-15.34,17.2c7.42,3.64,9.34,14.19,5.62,21.57
	c-3.73,7.38-11.49,11.9-19.36,14.43c7.11-2.29,6.52,20.07,5.16,22.97c-2.82,5.96-13.8,16.61-20.77,12.15
	c3.26,6.14,1.79,14.42-3.38,19.07c-5.17,4.65-13.56,5.22-19.32,1.32c1.58,6.41-0.88,13.64-6.05,17.75
	c-5.17,4.11-12.77,4.88-18.66,1.89c-0.02,5.43-0.07,10.98-1.97,16.07c-1.9,5.08-6.06,9.68-11.42,10.52
	c-8,1.25-14.66-5.75-19.72-12.09c0.01,6.97-3.24,12.09-7.98,15.37c17.16,12.74,45.6,9.28,57.51-9.08
	c7.83,9.84,21.29,14.86,33.65,12.55c12.37-2.31,23.1-11.85,26.85-23.86c2.4,11.36,18.87,14.28,28.47,7.73
	c9.6-6.54,13.82-18.37,17.46-29.4c-3.12,9.44,23.69,25.78,30.94,25.83c15.22,0.09,24.62-16.78,11.22-27.79
	c13.6,3.37,31-3.7,30.18-19.83c5.35,6.08,12.35,12.76,20.28,11.12c5.31-1.1,9.24-5.89,10.89-11.06c1.65-5.17,1.42-10.73,1.18-16.15
	c6.03,2.7,13.58,1.56,18.54-2.8c4.96-4.36,7.07-11.7,5.17-18.02c5.94,3.62,14.29,2.64,19.23-2.26c4.95-4.89,6.01-13.23,2.46-19.21
	c7.17,4.11,17.63-7.06,20.15-13.15c1.22-2.96,0.73-25.32-6.27-22.69c7.74-2.91,15.27-7.8,18.64-15.35
	c3.36-7.55,0.93-17.99-6.66-21.27c6.93-3.91,13.36-10.04,14.48-17.92c1.13-7.88-5.48-16.85-13.35-15.63
	c6.16-4.08,9.93-11.53,9.57-18.9c-0.37-7.38-4.86-14.42-11.4-17.86c3.9-5.03,4.19-12.13,2.31-18.2c-1.88-6.08-5.63-11.37-9.32-16.55
	c4.52,3.81,12.24,1.01,14.65-4.39c2.41-5.39,0.44-11.93-3.33-16.48c-3.77-4.55-9.05-7.53-14.21-10.41
	c6.95-4.7,14.81-13.05,10.3-20.14c-4.23-6.67-14.42-4.01-21.54-0.6c4.16-3.01,5.54-9.27,3.03-13.74c-2.51-4.48-8.58-6.56-13.31-4.58
	c3.28-5.7,6.85-10.28,7.51-17.03c0.68-7.09-6.6-12.06-12.92-15.35c4.07-2.91,8.23-5.92,10.94-10.13c2.71-4.21,3.65-9.95,0.98-14.18
	c-4.06-6.43-13.38-6.12-20.91-5.04c4.73-4.38,7.27-11.54,4.83-17.5c-2.44-5.96-10.69-9.21-15.88-5.39
	c3.35-4.66,3.99-11.12,1.63-16.34c-2.36-5.23-7.64-9.01-13.35-9.57c7.14-6.46-2.72-13.61-5.15-19.16
	c5.46,1.96,12.38-1.79,11.97-8.26c-0.37-5.63-5.75-9.94-11.32-10.87c1.99-4.16,5.24-7.59,7.5-11.61s3.43-9.21,1.02-13.14
	c-4.27-6.98-14.86-4.46-22.32-1.09c2.71-7.38-3.96-16.46-11.81-16.09c5.09-4.14,6.86-11.85,4.1-17.8c-2.76-5.95-9.8-9.56-16.24-8.35
	c4.95-4.85,6.26-13.01,3.08-19.16c-3.17-6.16-10.58-9.82-17.4-8.6c4.91-5.89-1.9-11.36,0.15-15.7c2.03-4.31,7.96-1.72,12.17-4.89
	c4.56-3.43,6.36-10.08,4.18-15.34c-2.02-4.86-6.77-8.03-11.56-10.22c-5.52-2.53-11.44-4.16-17.47-4.81
	c4.58-3.98,8.34-8.9,10.97-14.37c1-2.08,1.86-4.33,1.74-6.64c-0.28-5.65-6.44-9.54-12.1-9.43c-5.66,0.11-10.82,3.07-15.69,5.94
	c3.96-4.98,4.35-12.49,0.92-17.85c-3.42-5.36-10.41-8.17-16.59-6.67c6.02-4.4,3.54-15.82-3.76-17.32c-1.53-0.31-2.63-0.58-2.96-2.12
	c4.57-0.93,9.98-1.47,14.31-3.93c3.9-2.22,7.05-6.37,6.74-10.85c-0.19-2.77-1.66-5.32-3.53-7.38c-5.77-6.37-15.8-8.43-23.62-4.85
	c2.37-4.89,3.5-10.93,0.76-15.62c-2.75-4.69-10.51-6.2-13.55-1.7c3.83-6.08,3.87-14.33,0.11-20.45c-3.76-6.12-11.14-9.81-18.29-9.15
	c5.86-7.39,1.97-20.18-7.01-23.05c5.45-1.4,19.42-1.86,19.87-9.67c0.11-1.86-0.7-3.64-1.64-5.25c-5-8.59-14.37-14.49-24.28-15.27
	c4.74-3.15,9.58-6.39,12.93-10.99c3.34-4.6,4.93-10.92,2.49-16.07c-2.7-5.72-9.64-8.42-15.96-8.04c-6.31,0.38-12.18,3.22-17.86,6.01
	c7.65-3.03,10.83-13.74,6.32-20.62s-15.27-8.37-21.67-3.2c3.55-5.46,2.62-12.66-0.91-18.04c-2.83-4.3-7.32-7.45-12.53-7.6
	c3.03-3.26,7.39-4.89,11.04-7.44c3.65-2.55,6.82-6.95,5.5-11.2c-1.05-3.38-4.56-5.36-7.94-6.44c-9.21-2.93-19.74-1.38-27.73,4.06
	c5.2-4.82,16.15-10.41,11.61-18.99c-3.1-5.88-10.14-8.4-16.68-9.63c4.4-0.97,8.96-2.01,12.56-4.74c3.59-2.72,5.94-7.64,4.31-11.84
	c-1.01-2.58-3.3-4.44-5.72-5.79c-7.72-4.28-17-4.29-25.83-4.18c8.66-3.44,9.63-16.83,3.01-23.38c-6.62-6.55-17.53-6.86-26.16-3.35
	c4.15-6.63,3.73-15.82-1.02-22.04c-4.75-6.22-13.5-9.05-20.99-6.79c7.08-9.84-2.58-17.16-7.2-24.04
	c8.61-1.87,15.26-12.03,10.6-20.49c-4.79-8.69-17.26-10.75-26.23-6.5c9-5.8,10.06-20.57,2.06-27.69
	c-7.99-7.12-22.42-4.48-27.48,4.96c1.85-9.09,2.8-19.34-2.58-26.89c-5.37-7.56-19.39-8.56-22.71,0.1c3.11-7.04,1.85-15.8-3.13-21.67
	c-4.98-5.87-13.42-8.54-20.87-6.62c2.31-9.77-7.65-20.22-17.52-18.39c4.28-8.38,8.02-15.12,1.07-24.01
	c-5.08-6.5-14.47-9.24-22.25-6.49c4.55-4.19,9.09-8.38,13.64-12.56c2.46-2.26,5-4.66,6.08-7.81c2.91-8.47-7.07-16.81-15.99-15.97
	c-8.92,0.84-16.12,7.34-22.62,13.5c1.13-5.79,2.25-11.79,0.84-17.51c-1.4-5.72-6.09-11.09-11.98-11.29
	c-9.63-0.32-14.23,11.52-16.05,20.98c1.71-11.11-13.78-20.23-22.67-13.34c2.88-3.99,5.73-8.63,4.94-13.48
	c-1.03-6.32-8.12-10.17-14.51-9.86c-6.4,0.31-12.2,3.66-17.71,6.92c0.29-7.67-5.38-15.15-12.84-16.95
	c-7.46-1.8-15.92,2.28-19.16,9.23c-1.58-6.45-8.99-10.82-15.4-9.08c-9.89,2.68-6.05-13.53-18.8-13.12
	c-7.56,0.26-13.83,5.79-18.7,11.56c5.79-8.94,4.53-28.26-8.77-26.16c-6.96,1.1-23.14,18.09-20.23,26.09
	c-2.61-7.2-0.71-17.01-7.19-21.1c-5.14-3.25-12.37,0.22-15.29,5.56c-2.92,5.34-2.73,11.76-2.46,17.84
	c-6.08-7.52-16.02-11.74-25.66-10.89c-9.64,0.86-18.68,6.76-23.34,15.24c-13.37-12.3-33.09-9.66-45.31,2.37
	c-4.61-4.39-9.93-9.05-16.25-9.07C1024.92,376.24,1024.51,385.15,1019.92,391.53z"/>
<path fill="#F6E8D6" d="M1500.5,1704.1c1.08-0.76,2.1-1.59,3.12-2.43c-2.44-0.21-4.84-0.71-7.09-1.56
	C1498.21,1701.09,1499.47,1702.51,1500.5,1704.1z"/>
<path fill="#FBF1E5" d="M717.44,1733.64c-3.41,5.55,10.86,18.17,16.15,17.42c0.48-0.07,0.83-0.28,1.26-0.4
	C727.55,1745.97,721.87,1740.24,717.44,1733.64z"/>
<path fill="#FBF1E5" d="M466.81,1673.99c-0.34,7.1,2.75,14.54,9.52,17.74c6.66,3.14,15.35,1.11,19.93-4.65
	c0.03,6,4.3,11.74,10.04,13.49c5.73,1.76,12.48-0.61,15.87-5.56c1.82,4.78-0.3,10.04-1.45,15.03c-1.15,4.99-0.58,11.45,4.1,13.52
	c4.77,2.11,9.97-1.97,12.99-6.21c3.03-4.24,5.88-9.39,10.94-10.65c0.89,6.67,2.8,13.2,5.64,19.29c1.85,3.96,4.6,8.11,8.89,8.92
	c5.18,0.98,9.96-3.57,11.78-8.52c1.93-5.25,2-11.12,3.62-16.37c6.97,5.39,18.56,10.08,25.71,1.33c2.43,8.91,10.29,16.09,19.39,17.72
	c9.09,1.62,18.95-2.4,24.32-9.92c5.21,13.58,25.52,18.14,36.03,8.09c5.12,4.24,4.84,12.86,10.15,16.85
	c3.82,2.87,9.43,2.21,13.5-0.29c4.02-2.46,6.88-6.37,9.63-10.2c-11.95-17.83-15.02-41.9-17.37-68.29
	c-13.39-150.21,13.78-300.68,40.87-449.46c2.08-11.43,4.97-24.08,15.63-30.86c7.15-4.55,16.4-5.46,25.17-6.22
	c133.86-11.6,265.21-8.66,398.14,11.33c23.47,3.53,25.4,24.38,23.13,44.48c-10.15,89.51-18.21,179.26-24.18,269.15
	c-3.39,51.01-6.08,102.46-0.52,153.42c2.6,23.85,5.37,51.06,15.57,73c1.85,3.97,4.86,8.72,6.81,13.54c2.54-2.78,4.91-5.68,6.92-7.54
	c-0.02,7.92,2.17,18.39,10.07,18.93c9.82,0.67,13.74-15.55,23.57-15.92c-2.3,7.64-2.29,15.96,0.03,23.59
	c0.47,1.55,1.1,3.16,2.38,4.15c3.26,2.5,7.81-0.48,10.67-3.43c5.77-5.91,11.12-12.23,16.01-18.89c0.94,4.82,1.94,9.82,4.85,13.78
	c2.9,3.96,8.28,6.57,12.83,4.73c4.46-1.8,6.5-7.01,7.05-11.8c0.54-4.78,0.1-9.76,1.75-14.29c6.9,6.28,18.92,5.67,25.15-1.29
	c-1.49,7.02,6.49,13.39,13.57,12.27c7.08-1.12,12.36-7.45,14.77-14.2c3.18,6.45,10.77,10.4,17.88,9.32
	c7.1-1.08,13.17-7.11,14.29-14.21c-1.95,12.39,24.79-4.23,25.55-4.84c3.1,6.38,10.96,10.03,17.83,8.27
	c6.87-1.75,12.02-8.72,11.68-15.81c3.32,3.23,3.73,8.3,4.74,12.82c1.01,4.52,3.74,9.56,8.37,9.86c3.16,0.2,5.96-1.96,8.12-4.27
	c5.35-5.72,8.86-13.14,9.89-20.91c7.82,6.88,18.46,14.2,27.75,9.49c7.12-3.61,8.12-13.21,4.1-19.43c-1.02-1.59-2.29-3.01-3.96-3.99
	c2.25,0.85,4.65,1.35,7.09,1.56c5.97,0.51,12.13-0.89,16.84-4.14c4.74-3.28,7.99-8.4,7.98-15.37c5.05,6.34,11.71,13.34,19.72,12.09
	c5.36-0.84,9.52-5.44,11.42-10.52c1.9-5.09,1.94-10.65,1.97-16.07c5.89,2.99,13.49,2.22,18.66-1.89c5.17-4.11,7.63-11.34,6.05-17.75
	c5.76,3.9,14.15,3.33,19.32-1.32c5.17-4.65,6.64-12.93,3.38-19.07c6.97,4.46,17.95-6.19,20.77-12.15
	c1.36-2.89,1.95-25.25-5.16-22.97c7.87-2.53,15.63-7.05,19.36-14.43c3.73-7.38,1.8-17.92-5.62-21.57
	c7.11-3.57,13.83-9.38,15.34-17.2c1.51-7.82-4.65-17.09-12.57-16.27c6.35-3.77,10.48-11.03,10.47-18.41
	c-0.01-7.39-4.15-14.64-10.51-18.4c4.14-4.83,4.77-11.91,3.19-18.07c-1.57-6.16-5.06-11.63-8.5-16.98
	c4.33,4.02,12.18,1.6,14.84-3.67c2.67-5.27,1.02-11.9-2.52-16.63c-3.54-4.73-8.67-7.96-13.69-11.09
	c7.18-4.36,15.43-12.32,11.28-19.61c-3.91-6.86-14.21-4.71-21.5-1.65c4.3-2.8,5.98-8.99,3.69-13.58c-2.29-4.59-8.24-6.97-13.07-5.22
	c3.56-5.53,7.35-9.94,8.33-16.65c1.03-7.05-6.01-12.36-12.16-15.96c4.2-2.71,8.52-5.52,11.42-9.59c2.91-4.07,4.13-9.76,1.67-14.11
	c-3.74-6.62-13.06-6.77-20.63-6.06c4.94-4.14,7.82-11.17,5.68-17.25c-2.14-6.07-10.23-9.72-15.6-6.15
	c3.57-4.49,4.53-10.91,2.42-16.25c-2.1-5.33-7.19-9.37-12.87-10.21c7.44-6.1-2.06-13.73-4.21-19.39c5.36,2.22,12.46-1.18,12.36-7.67
	c-0.09-5.64-5.26-10.21-10.78-11.4c2.19-4.06,5.6-7.33,8.06-11.23c2.46-3.9,3.88-9.03,1.66-13.07c-3.93-7.18-14.63-5.18-22.25-2.18
	c3.06-7.24-3.15-16.63-11.02-16.64c5.28-3.89,7.43-11.51,4.96-17.58c-2.47-6.07-9.33-10.03-15.82-9.13
	c5.17-4.6,6.88-12.69,4.01-18.99c-2.87-6.3-10.09-10.32-16.96-9.44c5.19-5.64-1.34-11.43,0.91-15.67c2.23-4.2,8.03-1.33,12.39-4.29
	c4.72-3.21,6.85-9.75,4.92-15.12c-1.78-4.96-6.37-8.35-11.05-10.78c-5.39-2.79-11.22-4.71-17.21-5.66
	c4.77-3.75,8.77-8.48,11.66-13.82c1.1-2.03,2.06-4.23,2.06-6.54c0-5.66-5.97-9.84-11.63-10.01c-5.66-0.17-10.95,2.54-15.96,5.18
	c4.19-4.78,4.95-12.27,1.79-17.79c-3.16-5.52-10-8.67-16.24-7.47c6.23-4.1,4.3-15.62-2.92-17.48c-1.51-0.39-2.59-0.71-2.85-2.26
	c4.6-0.71,10.04-0.98,14.48-3.23c4.01-2.03,7.35-6.02,7.26-10.51c-0.06-2.78-1.4-5.4-3.17-7.54c-5.45-6.64-15.37-9.19-23.35-5.99
	c2.6-4.77,4.03-10.75,1.52-15.56c-2.51-4.81-10.2-6.71-13.45-2.36c4.12-5.88,4.56-14.13,1.11-20.42
	c-3.45-6.29-10.65-10.34-17.82-10.03c6.21-7.09,2.95-20.06-5.88-23.37c5.51-1.14,19.48-0.91,20.32-8.69
	c0.2-1.85-0.52-3.68-1.38-5.33c-4.57-8.83-13.65-15.17-23.5-16.43c4.89-2.91,9.88-5.92,13.44-10.35c3.57-4.43,5.45-10.67,3.27-15.92
	c-2.42-5.84-9.22-8.88-15.55-8.81c-6.33,0.07-12.33,2.63-18.13,5.14c7.79-2.66,11.49-13.19,7.32-20.28
	c-4.17-7.09-14.84-9.1-21.49-4.25c3.81-5.28,3.23-12.52-0.03-18.07c-2.62-4.44-6.95-7.8-12.14-8.2c3.18-3.11,7.62-4.53,11.39-6.9
	c3.77-2.37,7.15-6.6,6.03-10.92c-0.89-3.43-4.29-5.58-7.61-6.82c-9.06-3.37-19.65-2.34-27.9,2.71c5.43-4.57,16.63-9.61,12.53-18.41
	c-2.81-6.02-9.72-8.89-16.19-10.43c4.44-0.76,9.04-1.58,12.77-4.12c3.72-2.55,6.31-7.34,4.88-11.61c-0.88-2.63-3.08-4.6-5.44-6.06
	c-7.5-4.65-16.77-5.11-25.6-5.43c8.81-3.02,10.44-16.34,4.15-23.21c-6.29-6.87-17.18-7.71-25.96-4.62
	c4.47-6.42,4.49-15.62,0.05-22.06c-4.44-6.44-13.04-9.7-20.63-7.8c7.56-9.49-1.74-17.27-6.02-24.37
	c8.69-1.45,15.83-11.28,11.59-19.95c-4.36-8.92-16.71-11.58-25.88-7.77c9.27-5.36,11.04-20.06,3.41-27.56
	c-7.64-7.5-22.18-5.56-27.69,3.62c2.29-8.99,3.73-19.18-1.26-26.99c-5-7.81-18.95-9.49-22.69-1.01c3.45-6.88,2.62-15.7-2.07-21.8
	c-4.69-6.1-12.99-9.19-20.53-7.62c2.78-9.64-6.65-20.57-16.6-19.22c4.68-8.16,8.75-14.71,2.23-23.93c-4.76-6.74-14-9.93-21.91-7.57
	c4.75-3.96,9.49-7.92,14.23-11.89c2.56-2.14,5.22-4.4,6.46-7.5c3.32-8.32-6.25-17.14-15.2-16.73c-8.94,0.4-16.46,6.55-23.25,12.39
	c1.4-5.73,2.82-11.67,1.69-17.45c-1.12-5.79-5.53-11.38-11.41-11.86c-9.6-0.79-14.78,10.81-17.06,20.17
	c2.25-11.02-12.78-20.87-21.99-14.42c3.07-3.84,6.14-8.34,5.59-13.23c-0.72-6.36-7.61-10.55-14.02-10.56
	c-6.41,0-12.36,3.06-18.03,6.05c0.66-7.65-4.63-15.39-12-17.55c-7.37-2.16-16,1.5-19.58,8.29c-1.27-6.52-8.45-11.24-14.94-9.82
	c-10.01,2.19-5.38-13.81-18.13-14.01c-7.56-0.11-14.09,5.11-19.24,10.63c4.59-6.38,5-15.29,1.61-22.33
	c-0.86-1.79-1.91-3.5-3.27-4.97c-14.34,2.19-26.72,13.98-29.6,28.21c-1.04-7.24-3.56-14.27-7.36-20.53
	c-0.77-1.26-1.74-2.6-3.19-2.88c-1.38-0.26-2.73,0.53-3.85,1.37c-8.68,6.47-13.21,18.06-11.23,28.7
	c-2.79-8.82-13.01-14.54-21.99-12.3c-8.97,2.24-15.31,12.1-13.62,21.2c-14.29-6.73-33.61,5.33-33.85,21.12
	c-9.55-1.52-17.18,5.1-21.75,12.56c-2.55-3.16-4.41-6.73-6.44-10.33c-0.71-1.25-1.52-2.59-2.87-3.07c-1.53-0.54-3.2,0.21-4.57,1.06
	c-8.76,5.43-13.94,16.11-12.79,26.35c-4.13-4.16-8.4-8.42-13.8-10.72c-5.4-2.3-12.25-2.18-16.52,1.84
	c-2.91,2.75-4.17,6.81-4.78,10.77c-1.45,9.28,0.07,19,4.28,27.4c-15.99-0.55-29.51,17.64-24.38,32.79
	c-14.9-0.07-28.74,12.66-29.9,27.52c-8.59-2.51-15.25-1.09-20.1,6.63c-1.07,1.7-4.35,20.66,0.12,19.15
	c-7.93,2.67-17.62-3.24-24.6,1.36c-4.12,2.71-5.51,8.32-4.62,13.17c0.88,4.85,3.6,9.14,6.25,13.3c-7.37-0.75-14.47,3.81-18.81,9.82
	c-4.34,6.01-6.43,13.3-8.45,20.43c-2.12-5.65-4.38-11.51-8.8-15.61c-4.42-4.1-11.7-5.8-16.51-2.17c-5.24,3.95-5.16,11.94-3.02,18.15
	c2.14,6.21,5.84,12.04,6.2,18.59c-6.43-0.8-13.07,0.18-18.99,2.82c-3.23,1.44-6.67,4.18-6.2,7.68c0.29,2.14,1.98,3.79,3.63,5.17
	c5.63,4.71,12.02,8.49,18.86,11.16c-12.66-0.88-23.45,14.14-18.57,25.85c-10.04-2.29-17.15,0.13-23.89,7.4
	c-2.35,2.54-13.65,20.43-7.7,23.62c-5.21-2.79-10.58-5.63-16.45-6.36c-5.87-0.74-12.44,1.09-15.75,5.99
	c-3.76,5.55-2.28,13.16,0.73,19.15c3.01,5.99,7.39,11.33,9.48,17.7c-4.68-1.93-10.49-0.65-13.93,3.06
	c-3.44,3.71-4.27,9.61-1.99,14.13c-6.93,0.08-13.58-4.96-20.31-3.28c-7.65,1.91-10.71,11.97-8.04,19.39
	c2.67,7.43,9.15,12.71,15.35,17.6c-5.13,2.12-10.47,4.4-14.03,8.65c-3.7,4.42-4.1,10.22-1.38,15.19
	c-7.46,4.84-16.96,4.42-23.46,11.61c-3.04,3.35-11.35,20.28-4.69,23.96c-8.73-4.83-21.06-1.25-25.87,7.49
	c-4.8,8.74-1.2,21.07,7.55,25.85c-9.3,3.64-15.82,13.43-15.6,23.42c-11.54,0.97-19.56,15.44-14.26,25.73
	c-3.19-4.93-6.61-10.07-11.82-12.76c-5.21-2.69-12.75-1.82-15.49,3.37c-1.4,2.65-1.3,5.81-1,8.79c0.87,8.76,3.13,17.37,6.66,25.43
	c-7.01-4.87-18.5-1.52-20.94,6.66c-2.44,8.19,6.68,17.55,14.68,14.57c-8.45,6.11-12.45,17.74-9.55,27.75
	c-10.92,1.29-15.78,13.95-12.41,23.27c-10.1-2.17-21.21-3.98-27.43,7.25c-6.08,10.97-2.86,24.68,1.88,36.28
	c-7.03-0.6-13.16-5.08-20.07-6.52c-6.91-1.44-16.15,2.72-15.23,9.72c0.37,2.83,2.34,5.15,4.23,7.3c6.52,7.4,13.04,14.81,19.57,22.21
	c-9.01-0.78-18.24,4.62-21.96,12.87c-3.72,8.25-1.66,18.74,4.89,24.97c-15.75-0.52-27.89,19.61-20.08,33.3
	c-25.61,2.49-42.78,35.24-30.26,57.72c-6.66-4.61-12.93-11.07-21.03-11.4c-12.36-0.5-20.49,14.66-17.76,26.73
	c2.72,12.06,12.35,21.16,21.51,29.48c-4.2-3.74-29,2.57-31.95,8.03c-3.45,6.4-1.99,14.58,1.92,20.71
	c4.89,7.65,13.17,11.69,18.73,18.65c-9.04,2.83-15.8,9.79-18.76,18.82c-2.79,8.52-0.45,18.48,1.71,26.74
	c-11.76,4.31-12.62,24.14-1.29,29.45c-6.68,2.65-13.82,5.66-17.64,11.76c-3.82,6.09-1.95,16.11,5.05,17.76
	c5.36,1.27,11.84-2.54,16.09,0.97c-9.26,6.62-19.13,14.11-22.06,25.1c-2.92,11,6.12,25.23,17.17,22.52
	c-2.72,7.31-9.41,12.23-14.9,17.78c-5.49,5.55-10.23,13.48-7.6,20.83c2.08,5.81,8.34,9.3,14.48,9.92
	c6.14,0.63,12.26-1.05,18.21-2.72c-4.57,7.35-9.32,15.83-7.02,24.17c2.29,8.34,15.96,12.27,19.32,4.3
	c-0.53,6.88-0.32,14.27,3.56,19.97c5.14,7.56,12.15,4.63,19.76,3.47c-2.4,6.21,0,13.93,5.51,17.68c5.51,3.75,13.57,3.16,18.47-1.35
	c-0.8,7.02-8.76,11.99-8.56,19.06c0.19,6.42,7.55,10.68,13.93,10.01c6.39-0.67,11.85-4.72,16.95-8.63
	c0.76,5.81,1.52,11.63,2.29,17.45c0.46,3.5,1.21,7.48,4.25,9.29c5.04,3.01,10.82-2.42,14.18-7.24c4.09-5.86,8.17-11.73,12.26-17.59
	c0.81,28.65,25.49,22.93,43.33,14.43C437.51,1659.65,451.54,1684.19,466.81,1673.99z M564.33,1333.56
	c-2.55-1.54-3.99-3.88-5.24-5.94c-1.22-2.09-2.29-3.98-3.31-4.89c-0.69-0.61-1.16-0.84-1.96-0.88l-0.02,0l-0.07,0
	c-0.71,0-1.45,0.3-2.3,1.01c-0.83,0.7-1.66,1.76-2.33,2.87c-2.61,4.29-4.19,9.23-4.58,14.23h0c-0.11,1.37-1.31,2.4-2.68,2.29
	c-1.37-0.11-2.4-1.31-2.29-2.68c0.45-5.8,2.27-11.46,5.29-16.43c0.86-1.42,1.95-2.89,3.38-4.1c1.42-1.2,3.29-2.18,5.51-2.18l0.24,0
	c0,0,0,0,0,0l0.02,0h-0.01c2.11,0.05,3.92,1,5.19,2.21c1.29,1.21,2.19,2.62,3.02,3.99c1.61,2.77,3.06,5.32,4.68,6.21
	c1.19,0.7,1.58,2.23,0.87,3.42C567.05,1333.87,565.52,1334.26,564.33,1333.56z M508.16,1236.8c-1.2,0.68-2.72,0.26-3.4-0.94
	c-2.5-4.39-5.61-8.44-9.21-11.97c-1.49-1.47-2.95-2.66-4.41-3.15c-0.63-0.22-1.26-0.32-1.9-0.32c-1.64-0.01-3.44,0.69-5.03,1.94
	c-1.58,1.23-2.9,2.99-3.6,4.81c-0.86,2.2-1.18,4.59-1.18,7.15c0,2.83,0.4,5.83,0.83,8.84h0c0.19,1.36-0.75,2.63-2.12,2.82
	c-1.36,0.2-2.63-0.75-2.82-2.12c-0.43-3.04-0.88-6.26-0.88-9.55c0-2.96,0.37-6.01,1.51-8.95c1.06-2.73,2.89-5.14,5.18-6.94
	c2.29-1.79,5.09-2.99,8.11-3c1.17,0,2.37,0.19,3.53,0.59c2.68,0.94,4.63,2.71,6.27,4.3c3.94,3.86,7.33,8.27,10.06,13.07
	C509.78,1234.6,509.36,1236.12,508.16,1236.8z M557.23,1636.18c-0.62,0-1.23,0.09-1.81,0.27c-2.84,0.81-5.05,4.2-5.02,7.4
	c0,1.08,0.24,2.11,0.71,3.01h0c0.64,1.22,0.18,2.73-1.04,3.37c-1.22,0.64-2.73,0.18-3.37-1.04c-0.89-1.69-1.29-3.54-1.29-5.34
	c0.03-5.22,3.19-10.44,8.52-12.16c1.09-0.34,2.2-0.49,3.29-0.49c3.05,0.01,5.95,1.18,8.23,3.07c0.6,0.5,1.15,1.06,1.65,1.66
	c2.9-6.43,7.21-12.2,12.65-16.71c0.58-0.47,1.25-1,2.09-1.45c0.83-0.44,1.86-0.82,3.06-0.83l0.69,0.04
	c1.14,0.14,2.08,0.63,2.81,1.15c0.74,0.53,1.3,1.12,1.77,1.65c4.25,4.8,6.5,11.11,6.5,17.44c0,2.61-0.39,5.22-1.19,7.74
	c-0.42,1.31-1.82,2.04-3.14,1.62c-1.31-0.42-2.04-1.82-1.62-3.14c0.64-2,0.95-4.1,0.95-6.22c0-5.14-1.87-10.33-5.25-14.14l-0.94-0.9
	l-0.52-0.25l-0.07,0l-0.71,0.24c-0.36,0.19-0.8,0.51-1.26,0.9c-6.23,5.15-10.9,12.21-13.21,19.96c-0.34,1.13-1.43,1.87-2.61,1.77
	c-1.18-0.1-2.12-1.02-2.26-2.19c-0.19-1.68-1.15-3.29-2.6-4.49C560.83,1636.89,558.96,1636.17,557.23,1636.18z M625.42,1389.38
	c-1.09,0.81-2.41,1.19-3.63,1.18c-1.75-0.01-3.28-0.66-4.59-1.53c-1.31-0.88-2.42-2.01-3.25-3.28c-0.99-1.52-1.7-3.03-2.44-4.24
	c-0.74-1.22-1.46-2.07-2.28-2.55c-0.61-0.36-1.23-0.51-1.94-0.52c-1.06-0.01-2.32,0.41-3.45,1.18c-1.13,0.76-2.1,1.86-2.64,3.01
	c-0.93,1.93-1.27,4.17-1.27,6.64c0,1.87,0.19,3.84,0.4,5.83l0,0c0.14,1.37-0.85,2.6-2.22,2.74c-1.37,0.15-2.6-0.85-2.74-2.22
	c-0.21-2.02-0.43-4.16-0.43-6.36c0-2.9,0.37-5.93,1.76-8.81c0.98-2.03,2.51-3.73,4.34-4.97c1.82-1.24,3.97-2.04,6.25-2.04
	c1.51,0,3.08,0.38,4.49,1.22c1.88,1.13,3.07,2.74,3.99,4.24c0.92,1.51,1.61,2.98,2.36,4.11c0.44,0.68,1.13,1.39,1.84,1.86
	c0.71,0.48,1.41,0.69,1.82,0.68l0.68-0.22c1.11-0.81,2.67-0.57,3.49,0.54C626.78,1387,626.53,1388.56,625.42,1389.38z
	 M868.01,1119.23c-0.91,1.04-2.48,1.15-3.52,0.24c-1.04-0.91-1.15-2.48-0.24-3.52l0.38-1.01c0.02-0.64-0.44-1.74-1.32-2.58
	c-0.87-0.85-2.02-1.36-2.93-1.35l-0.18,0.01c-1.64,0.1-3.18,0.84-4.72,2.1c-1.52,1.25-2.96,3-4.21,4.8c-0.7,1-2.01,1.35-3.11,0.82
	c-1.1-0.52-1.66-1.75-1.33-2.93c1.02-3.65,1.53-7.44,1.53-11.24c0-6.66-1.56-13.33-4.6-19.22l-0.15-0.25l-0.45,0.22
	c-4.44,2.58-7.46,6.72-9.7,11.78c-2.23,5.05-3.59,10.94-4.74,16.6c-0.21,1.02-1.01,1.8-2.04,1.97c-1.03,0.17-2.04-0.31-2.56-1.21
	c-1.71-2.94-3.8-5.66-6.2-8.06c-0.98-0.98-2.06-1.89-3.13-2.51c-1.07-0.62-2.07-0.94-2.98-0.94l-0.46,0.03
	c-1.17,0.14-2.18,0.8-3.01,2c-0.82,1.18-1.33,2.84-1.32,4.39l0.11,1.24v0.01c0.62,3.63,3.39,7.05,6.45,10.49h0
	c0.91,1.03,0.81,2.61-0.22,3.52c-1.03,0.91-2.61,0.81-3.52-0.22c-3.04-3.48-6.62-7.47-7.63-12.91v0c-0.13-0.7-0.19-1.41-0.19-2.13
	c0.01-2.56,0.76-5.11,2.2-7.22c1.43-2.09,3.7-3.8,6.56-4.12l1.02-0.06c2.07,0,3.92,0.7,5.5,1.62c1.59,0.93,2.95,2.11,4.13,3.29
	c1.3,1.3,2.51,2.69,3.64,4.15c0.95-4.03,2.12-8.11,3.81-11.94c2.48-5.64,6.12-10.81,11.76-14.09c0.76-0.42,1.76-0.99,3.24-1.01
	c0.57,0,1.21,0.11,1.82,0.4c1.6,0.8,2.12,2.03,2.48,2.68c3.41,6.64,5.15,14.07,5.15,21.51c0,1.38-0.16,2.76-0.28,4.13
	c1.91-1.42,4.18-2.51,6.81-2.68l0.49-0.02c2.54,0.01,4.76,1.17,6.41,2.76c1.63,1.6,2.81,3.71,2.83,6.16
	C869.63,1116.41,869.1,1117.99,868.01,1119.23z M872.34,709.27c-0.75,1.15-2.3,1.48-3.45,0.73c-2.6-1.71-4.1-4.1-5.44-6.17
	c-1.33-2.1-2.52-3.92-3.96-4.98c-1.19-0.89-2.64-1.32-4.22-1.32c-3.09-0.03-6.49,1.78-8.01,4.42c-0.96,1.62-1.42,3.49-1.42,5.46
	c-0.01,3.11,1.19,6.41,3.21,8.85h0c0.88,1.06,0.72,2.64-0.34,3.51c-1.06,0.88-2.64,0.72-3.51-0.34c-2.76-3.36-4.34-7.67-4.35-12.02
	c0-2.75,0.65-5.53,2.12-8c2.61-4.34,7.44-6.84,12.3-6.86c2.5,0,5.06,0.71,7.22,2.32c2.43,1.85,3.84,4.24,5.16,6.28
	c1.31,2.07,2.5,3.75,3.96,4.68C872.76,706.57,873.09,708.11,872.34,709.27z M1028.96,1158.77c-1.35,0.28-2.67-0.59-2.95-1.94
	c-0.65-3.17-2.15-6.34-4.22-8.74c-2.08-2.41-4.65-4.01-7.55-4.42l-0.95-0.07c-2.12-0.01-4.44,0.99-6.15,2.57
	c-1.72,1.58-2.74,3.63-2.72,5.43c0,0.68,0.13,1.34,0.42,2.02h0c0.54,1.27-0.04,2.73-1.31,3.28s-2.73-0.04-3.28-1.31
	c-0.56-1.3-0.82-2.66-0.82-3.99c0.02-3.58,1.81-6.78,4.33-9.1c2.54-2.32,5.9-3.88,9.52-3.89c0.54,0,1.09,0.04,1.64,0.11
	c4.33,0.6,7.96,2.98,10.64,6.1c2.69,3.13,4.51,7.01,5.33,10.99C1031.18,1157.18,1030.31,1158.49,1028.96,1158.77z M1267.58,1374.06
	c1.45-0.64,3.21-1.41,5.35-1.42l1.06,0.07c1.73,0.22,3.26,1.03,4.38,2.12c1.13,1.09,1.9,2.41,2.45,3.78
	c1.09,2.75,1.4,5.79,1.42,8.44c0.01,1.38-1.1,2.5-2.48,2.51c-1.38,0.01-2.5-1.1-2.51-2.48c-0.01-1.68-0.18-3.54-0.58-5.13
	c-0.4-1.6-1.05-2.87-1.74-3.52c-0.47-0.44-0.91-0.67-1.6-0.77l-0.39-0.03c-0.83-0.01-2,0.38-3.29,0.98
	c-3.5,1.59-6.84,3.55-9.94,5.83c-0.66,0.48-1.5,0.62-2.28,0.36c-0.77-0.26-1.37-0.88-1.6-1.66c-0.56-1.91-0.7-3.83-0.71-5.68
	c0.01-2.94,0.37-5.76,0.36-8.18c0-1.43-0.12-2.7-0.43-3.76c-0.31-1.06-0.77-1.9-1.54-2.68c-1.02-1.01-2.33-1.48-3.93-1.49
	c-2.63-0.03-5.82,1.53-7.49,3.74c-2.99,3.8-3.74,9.4-4.25,15.17c-0.07,0.73-0.46,1.4-1.06,1.81c-0.6,0.42-1.36,0.55-2.07,0.36
	c-2.01-0.54-3.32-1.84-4.29-2.94c-0.98-1.13-1.73-2.17-2.42-2.77c-0.95-0.87-2.34-1.36-3.79-1.36c-1.57,0-3.09,0.58-4.06,1.57
	c-0.97,0.97-1.54,2.47-1.54,4.02c0,1.46,0.5,2.87,1.39,3.83h0c0.93,1.01,0.86,2.59-0.15,3.53c-1.01,0.93-2.59,0.87-3.52-0.15
	c-1.85-2.02-2.7-4.64-2.7-7.2c0-2.71,0.95-5.47,2.98-7.53c2.07-2.07,4.86-3.04,7.6-3.04c2.54,0,5.12,0.83,7.14,2.65
	c0.83,0.76,1.45,1.52,2.02,2.22c0.6-4.52,1.71-9.21,4.78-13.21c2.75-3.5,7.06-5.64,11.44-5.68c2.63-0.01,5.38,0.87,7.45,2.95
	c1.43,1.42,2.32,3.11,2.81,4.82c0.49,1.72,0.62,3.45,0.62,5.14c-0.01,2.86-0.37,5.67-0.36,8.18c0,0.25,0.03,0.48,0.04,0.72
	C1262.53,1376.65,1264.99,1375.23,1267.58,1374.06z M1330.83,1434.71c-0.24,1.36-1.53,2.27-2.89,2.03
	c-1.36-0.24-2.27-1.53-2.03-2.89c0.5-2.84,0.96-5.65,0.96-8.25c0-1.86-0.23-3.6-0.8-5.22c-0.53-1.54-1.61-3.06-2.91-4.12
	c-1.31-1.07-2.78-1.66-4.1-1.65c-0.45,0-0.89,0.06-1.34,0.2c-1.13,0.35-1.98,0.98-2.84,1.97c-0.85,0.98-1.63,2.33-2.41,3.87
	c-1.6,3.05-3.09,6.88-6.35,9.69c-0.87,0.74-2.15,0.79-3.08,0.12c-0.93-0.67-1.28-1.9-0.85-2.96l0.17-0.82
	c0.02-0.71-0.46-1.67-1.49-2.5c-1.01-0.82-2.46-1.36-3.7-1.34c-0.55,0-1.05,0.09-1.5,0.28c-1.8,0.72-3.21,2.13-4.36,4.08
	c-1.14,1.94-1.93,4.37-2.41,6.77h0c-0.27,1.35-1.59,2.22-2.94,1.95c-1.35-0.27-2.22-1.59-1.95-2.94c0.56-2.76,1.47-5.68,3-8.29
	c1.52-2.6,3.72-4.95,6.8-6.19c1.1-0.44,2.25-0.64,3.37-0.64c2.53,0.01,4.92,0.94,6.81,2.44c0.75,0.6,1.41,1.35,1.96,2.17
	c0.29-0.52,0.57-1.07,0.85-1.63c1.21-2.37,2.37-5.02,4.29-7.28c1.28-1.5,2.98-2.83,5.16-3.49c0.93-0.29,1.88-0.42,2.8-0.42
	c2.75,0.01,5.25,1.14,7.26,2.78c2.01,1.66,3.59,3.85,4.46,6.33c0.8,2.28,1.07,4.61,1.07,6.87
	C1331.86,1428.77,1331.33,1431.84,1330.83,1434.71z M1294.78,1664.22c3.14-0.01,6.4,1.1,8.72,3.71c2.59,2.94,3.24,6.53,3.58,9.81
	c0.33,3.31,0.38,6.49,1.05,8.86c0.45,1.59,1.08,2.75,2.15,3.68c1.04,0.9,1.16,2.47,0.27,3.52c-0.9,1.04-2.47,1.16-3.52,0.27
	c-1.49-1.28-2.5-2.86-3.15-4.48c-0.66-1.63-0.98-3.31-1.2-4.96c-0.41-3.3-0.41-6.56-0.99-9.17c-0.38-1.74-0.96-3.13-1.93-4.21
	c-1.24-1.38-2.93-2.02-4.99-2.04c-3.04-0.03-6.61,1.63-8.57,4.08c-3.61,4.35-4.56,10.82-5.26,17.41c-0.12,1.09-0.94,1.98-2.02,2.18
	c-1.08,0.2-2.16-0.32-2.67-1.3c-1.01-2-3.56-3.35-6.12-3.34c-1.6,0-3.08,0.5-4.14,1.45c-1.26,1.11-1.98,2.91-1.98,4.84
	c0,2.28,1.01,4.47,2.65,5.57l0,0c1.14,0.78,1.43,2.33,0.66,3.47c-0.78,1.14-2.33,1.43-3.47,0.66c-3.29-2.26-4.83-6.04-4.83-9.69
	c0-3.11,1.13-6.32,3.65-8.57c2.13-1.89,4.83-2.71,7.46-2.71c2.26,0.01,4.52,0.66,6.49,1.85c0.77-5.18,2.13-10.53,5.73-14.97
	C1285.4,1666.45,1290.09,1664.25,1294.78,1664.22z M1401.11,1674.12c-0.14,1.37-1.36,2.37-2.73,2.24c-1.37-0.13-2.37-1.36-2.24-2.73
	c0.21-2.1,0.4-4.17,0.4-6.14c0-2.49-0.31-4.78-1.17-6.8c-0.59-1.39-1.66-2.74-2.91-3.67c-1.26-0.95-2.65-1.46-3.89-1.45
	c-0.51,0-1.01,0.08-1.5,0.26c-1.36,0.46-2.74,1.77-4.15,3.42c-3.63,4.17-6.83,8.71-9.53,13.54h0c-0.67,1.2-2.19,1.63-3.4,0.96
	c-1.2-0.67-1.63-2.19-0.96-3.4c2.87-5.12,6.26-9.95,10.12-14.37c1.53-1.73,3.39-3.8,6.24-4.84c1.05-0.38,2.13-0.55,3.18-0.55
	c2.56,0.01,4.93,0.99,6.88,2.45c1.95,1.47,3.53,3.44,4.51,5.7c1.23,2.89,1.57,5.88,1.57,8.76
	C1401.53,1669.78,1401.31,1672.01,1401.11,1674.12z M1502.71,1213.41c-1.03-2.29-2.45-3.88-4.77-4.85
	c-1.02-0.42-2.11-0.62-3.24-0.62c-2.83-0.02-6.01,1.31-8.39,3.33c-3.43,2.88-5.86,7.14-8.26,11.61l0,0
	c-0.65,1.21-2.17,1.67-3.38,1.01c-1.21-0.65-1.67-2.17-1.01-3.38c2.43-4.49,5.08-9.36,9.43-13.06c3.18-2.67,7.29-4.5,11.61-4.51
	c1.72,0,3.46,0.3,5.14,0.99c3.61,1.47,6.06,4.27,7.44,7.46c1.39,3.2,1.86,6.8,1.87,10.41c0,3.74-0.52,7.51-1.22,10.87
	c-0.28,1.35-1.6,2.22-2.95,1.94c-1.35-0.28-2.22-1.6-1.94-2.95c0.65-3.12,1.12-6.59,1.11-9.86
	C1504.17,1218.66,1503.72,1215.69,1502.71,1213.41z M1473.97,1371.63c3.41,0.01,6.36,1.67,8.56,3.91c2.21,2.26,3.79,5.15,4.55,8.17
	c1.04,4.29,0.91,8.45,0.94,12.35c3.04-2.16,6.59-3.58,10.34-3.92l1.11-0.05c1.05,0,2.34,0.14,3.6,0.9c1.8,1.13,2.5,2.8,2.97,4.05
	c0.69,1.91,1.01,3.91,1.01,5.9c-0.01,4.93-1.96,9.83-5.62,13.29c-1,0.94-2.58,0.9-3.53-0.11c-0.95-1-0.9-2.58,0.11-3.53
	c2.56-2.4,4.06-6.06,4.05-9.65c0-1.45-0.23-2.88-0.71-4.21c-0.31-0.9-0.71-1.42-0.87-1.48c-0.11-0.07-0.43-0.18-1.01-0.18
	l-0.68,0.03c-4.24,0.36-8.38,2.55-11.06,5.85c-0.63,0.78-1.68,1.1-2.64,0.82c-0.96-0.28-1.67-1.12-1.78-2.11
	c-0.65-6.13,0.19-11.87-1.07-16.75c-0.52-2.13-1.73-4.33-3.26-5.88c-1.54-1.57-3.29-2.42-5.01-2.42l-0.82,0.06
	c-1.86,0.26-3.82,1.66-5.62,3.51c-4.51,4.57-7.68,10.5-8.98,16.79c-0.24,1.16-1.27,2-2.46,1.99s-2.21-0.85-2.43-2.02
	c-0.38-1.97-1.58-3.81-3.28-5.15c-1.69-1.34-3.83-2.14-5.86-2.13c-0.55,0-1.1,0.06-1.63,0.17c-1.93,0.41-3.72,1.63-5.01,3.31
	c-1.3,1.68-2.06,3.79-2.06,5.79c0,0.62,0.07,1.22,0.22,1.82h0c0.32,1.34-0.5,2.69-1.83,3.01c-1.34,0.33-2.69-0.49-3.01-1.83
	c-0.24-0.99-0.36-2-0.36-3c0-3.23,1.17-6.33,3.09-8.83c1.92-2.5,4.66-4.44,7.91-5.14c0.9-0.19,1.8-0.29,2.69-0.29
	c3.29,0.01,6.44,1.22,8.95,3.21c0.74,0.59,1.41,1.27,2.04,2c1.9-4.91,4.76-9.44,8.46-13.19c2.1-2.11,4.78-4.35,8.4-4.93
	C1472.91,1371.67,1473.44,1371.63,1473.97,1371.63z M1522.71,1537.43c1.65-2.3,3.66-4.68,6.08-6.56c2.41-1.87,5.34-3.3,8.69-3.3
	l1.31,0.07c3.52,0.4,6.39,2.41,8.35,4.98c1.97,2.58,3.15,5.76,3.39,8.99c0.04,0.51,0.05,1.01,0.05,1.51
	c-0.02,5.63-2.14,10.72-4.03,15.36c-0.52,1.27-1.98,1.88-3.26,1.36c-1.27-0.52-1.88-1.98-1.36-3.26c1.91-4.62,3.67-9.16,3.65-13.47
	l-0.04-1.15c-0.15-2.22-1.03-4.57-2.38-6.31c-1.35-1.75-3.05-2.85-4.95-3.06l-0.75-0.04c-1.88,0-3.76,0.81-5.63,2.25
	c-1.86,1.44-3.61,3.47-5.09,5.53c-3.08,4.28-5.78,8.83-8.08,13.58c-0.43,0.89-1.36,1.45-2.35,1.41c-0.99-0.04-1.87-0.67-2.23-1.6
	c-1.23-3.23-2.46-6.22-4.39-8.27c-1.43-1.56-3.57-2.62-5.31-2.59c-0.49,0-0.96,0.07-1.41,0.23c-1.04,0.34-2.12,1.18-3.13,2.32
	c-2.82,3.12-4.5,7.32-4.6,11.52h0c-0.03,1.38-1.18,2.47-2.56,2.43c-1.38-0.03-2.47-1.18-2.43-2.56c0.14-5.43,2.25-10.71,5.88-14.74
	c1.31-1.45,2.98-2.94,5.24-3.7c0.99-0.33,2.01-0.49,3-0.49c3.54,0.03,6.7,1.78,8.96,4.18c1.43,1.55,2.48,3.27,3.34,5.01
	C1518.54,1543.75,1520.49,1540.5,1522.71,1537.43z M1439.56,1013.61c3.7-3.2,8.46-5.23,13.51-5.23l0.11,0h-0.02
	c1.1,0.02,2.68,0.06,4.23,1.19c1.5,1.17,1.95,2.64,2.3,3.59c1.6,4.68,2.42,9.61,2.42,14.55c0,1.35-0.06,2.7-0.18,4.04
	c-0.12,1.37-1.34,2.39-2.71,2.26c-1.37-0.12-2.39-1.33-2.26-2.71c0.11-1.2,0.16-2.4,0.16-3.6c0-4.39-0.73-8.78-2.15-12.93
	l-0.38-0.94l-0.21-0.29l-0.3-0.11l-0.95-0.07l-0.02,0h-0.05c-3.68-0.01-7.36,1.51-10.24,4.01c-2.88,2.5-4.91,5.92-5.42,9.56h0
	c-0.2,1.36-1.46,2.31-2.82,2.12c-1.36-0.19-2.31-1.46-2.12-2.82C1433.19,1021.25,1435.87,1016.82,1439.56,1013.61z M1463.06,1064.43
	c50.91,7.39,67.26,79.51,14.86,99.53c-36.74,14.04-82.15,6.34-119.94,1.6c-14-1.75-29.25-4.58-38.34-15.37
	c-4.87-5.77-7.34-13.21-8.62-20.65c-1.43-8.31-0.96-15.66,1.05-22.14C1326.75,1060.07,1423.67,1058.71,1463.06,1064.43z
	 M1288.25,767.41c2.36-6.39,6.71-11.98,12.32-15.85c1.57-1.07,3.46-2.2,5.82-2.54l1.3-0.09c2.57,0,4.88,1.04,6.72,2.54
	c1.84,1.51,3.27,3.48,4.14,5.68c0.85,2.19,1.18,4.42,1.29,6.6c2.55-2.57,5.43-4.94,9.05-6.4c1.94-0.77,4.04-1.16,6.14-1.16
	c2.28,0,4.57,0.46,6.64,1.46c2.06,1,3.91,2.59,5.11,4.77l0,0.01c0.97,1.77,1.39,3.7,1.39,5.59c-0.02,3.91-1.7,7.64-4.23,10.46
	c-3.68,4.04-8.51,6.17-12.86,8.15c-1.26,0.57-2.73,0.01-3.3-1.25c-0.57-1.26-0.01-2.73,1.25-3.3c4.35-1.94,8.49-3.91,11.2-6.94
	c1.78-1.95,2.96-4.72,2.94-7.11c0-1.16-0.25-2.23-0.77-3.19c-0.65-1.17-1.64-2.06-2.92-2.69c-1.28-0.63-2.85-0.96-4.46-0.96
	c-1.48,0-2.98,0.28-4.29,0.81c-4.43,1.74-8.07,5.75-11.69,10c-0.7,0.82-1.85,1.09-2.84,0.68c-1-0.41-1.61-1.41-1.54-2.48
	c0.12-1.66,0.23-3.29,0.23-4.85c0-2.32-0.25-4.47-0.99-6.36c-0.53-1.37-1.5-2.71-2.64-3.63c-1.14-0.93-2.4-1.42-3.57-1.42l-0.6,0.04
	c-1.1,0.14-2.37,0.79-3.69,1.71c-4.75,3.26-8.48,8.06-10.47,13.47h0c-0.48,1.29-1.91,1.95-3.21,1.48
	C1288.44,770.14,1287.78,768.7,1288.25,767.41z M1231.93,910.72c31.72-17.57,67.29-34.22,84.38-41.97h0l10.52,23.24
	c-19.4,8.77-64,29.74-97.14,49.39c-11.02,6.52-20.78,12.93-27.62,18.37c-3.53,2.79-6.21,5.32-7.83,7.18
	c2.09,2.01,5.53,4.75,9.94,7.74c9.64,6.6,23.56,14.47,38.53,22.23c29.97,15.56,64.37,30.92,80.45,37.8l-10.04,23.45
	c-19.74-8.46-65.18-28.78-99.44-47.89c-11.45-6.4-21.63-12.62-29.56-18.59c-4.55-3.45-8.36-6.72-11.54-10.63
	c-1.68-2.12-3.25-4.44-4.37-7.66c-0.39-1.14-0.64-2.45-0.8-3.84c-0.12-0.76-0.18-1.45-0.18-1.92c0,0,0,0,0,0l0,0
	c0-0.01,0-0.02,0-0.03v-0.01c0.02-4.09,1.24-7.41,2.67-10.17c1.46-2.77,3.23-5.12,5.21-7.38c3.96-4.48,8.86-8.64,14.61-12.96
	C1201.17,928.52,1216.05,919.53,1231.93,910.72z M1173.74,790.29c-0.44,1.31-1.86,2.01-3.16,1.57c-1.31-0.44-2.01-1.86-1.57-3.16
	c1.08-3.17,2.24-6.75,4.79-9.8c2.19-2.58,5.4-4.55,9.1-4.58c0.76,0,1.53,0.09,2.3,0.29c2.99,0.77,5.09,2.84,6.5,5.07
	c1.43,2.24,2.32,4.74,3.04,6.97c0.42,1.31-0.31,2.72-1.62,3.13c-1.31,0.42-2.72-0.31-3.13-1.62c-0.66-2.08-1.46-4.21-2.49-5.8
	c-1.04-1.61-2.15-2.56-3.53-2.92l-1.06-0.13c-1.73-0.03-3.89,1.13-5.28,2.8C1175.86,784.18,1174.8,787.11,1173.74,790.29
	L1173.74,790.29z M1150.7,572.56c0.54-0.08,1.12-0.13,1.74-0.13c1.2,0,2.62,0.21,3.94,1.06l0.01,0c1.67,1.12,2.39,2.65,2.93,3.8
	c0,0,0,0,0,0l0,0c0,0,0,0,0,0c0.81,1.79,1.43,3.66,1.87,5.57c3.88-4.17,8.49-7.64,13.58-10.19c3.84-1.91,8.21-3.37,12.75-3.37
	c1.81,0,3.65,0.24,5.45,0.79c2.87,0.88,5.41,2.65,7.3,4.93c1.87,2.28,3.13,5.13,3.13,8.22c0,0.89-0.11,1.79-0.33,2.69l0,0
	c-0.68,2.67-2.22,4.81-4,6.51c-1.78,1.71-3.82,3.04-5.75,4.19c-4.03,2.4-8.22,4.53-12.53,6.38c-1.27,0.54-2.73-0.04-3.28-1.3
	c-0.54-1.27,0.04-2.73,1.31-3.28c4.11-1.77,8.11-3.81,11.95-6.09c1.78-1.05,3.51-2.22,4.84-3.5c1.34-1.29,2.24-2.63,2.62-4.14
	c0.12-0.49,0.18-0.98,0.18-1.47c0.01-1.69-0.72-3.5-1.99-5.05c-1.27-1.55-3.06-2.77-4.9-3.33c-1.29-0.39-2.62-0.57-4-0.57
	c-3.43-0.01-7.14,1.16-10.52,2.85c-6.13,3.06-11.52,7.64-15.52,13.21c-0.62,0.87-1.74,1.24-2.76,0.93
	c-1.02-0.32-1.73-1.25-1.76-2.32c-0.08-3.3-0.83-6.59-2.19-9.6l0,0c-0.41-0.94-0.85-1.53-1.1-1.67c-0.2-0.14-0.59-0.26-1.22-0.26
	l-1.05,0.08c-6.51,0.85-12.35,6.79-13.09,13.31h0c-0.17,1.37-1.41,2.34-2.78,2.17c-1.37-0.17-2.34-1.41-2.17-2.78
	C1134.5,581.29,1141.8,573.86,1150.7,572.56z M1129.53,732.42c0.88-1.37,1.9-2.53,2.83-3.57c1.58-1.76,3.36-3.68,5.47-5.27
	c2.11-1.58,4.64-2.85,7.61-3.03l0.68-0.02c5.19,0.05,9.45,3.35,12,7.27l0,0c2.59,4.06,3.56,8.59,4.47,12.72
	c0.29,1.35-0.56,2.68-1.9,2.97c-1.35,0.3-2.68-0.56-2.97-1.9c-0.9-4.12-1.83-8.04-3.8-11.09c-1.84-2.89-4.97-5.03-7.8-4.98
	l-0.38,0.01c-1.69,0.1-3.28,0.83-4.92,2.05c-1.63,1.21-3.22,2.89-4.75,4.6c-0.9,1-1.74,1.98-2.33,2.92c-0.6,0.94-0.93,1.79-1,2.62h0
	c-0.11,1.37-1.32,2.4-2.69,2.28c-1.37-0.11-2.4-1.32-2.28-2.69C1127.92,735.42,1128.66,733.79,1129.53,732.42z M1116.99,1116.1
	c2.83-2.53,6.57-4.33,10.57-4.35c1.28,0,2.59,0.2,3.86,0.63c2.57,0.88,4.62,2.58,6.12,4.61c1.51,2.03,2.5,4.39,3,6.8
	c0.35,1.7,0.48,3.38,0.48,5.03c0,2.94-0.41,5.77-0.78,8.45c-0.19,1.36-1.45,2.32-2.82,2.12c-1.36-0.19-2.32-1.45-2.12-2.82
	c0.38-2.68,0.74-5.3,0.74-7.76c0-1.39-0.11-2.73-0.38-4.02c-0.36-1.74-1.1-3.47-2.12-4.84c-1.02-1.38-2.28-2.37-3.72-2.86
	c-0.73-0.25-1.48-0.36-2.26-0.36c-2.42-0.02-5.19,1.21-7.24,3.07c-2.79,2.49-4.77,6.12-6.78,9.96c-0.42,0.8-1.23,1.3-2.13,1.33
	c-0.9,0.03-1.74-0.43-2.21-1.19c-1.46-2.4-3.16-4.86-5-6.61c-1.87-1.76-3.71-2.72-5.73-2.72l-0.22,0c-1.31,0.04-2.62,0.56-3.8,1.46
	c-1.17,0.89-2.17,2.17-2.78,3.54c-0.76,1.7-1.1,3.62-1.1,5.66c0,1.35,0.15,2.75,0.4,4.14h0c0.25,1.36-0.65,2.66-2.01,2.9
	c-1.36,0.25-2.66-0.65-2.9-2.01c-0.3-1.63-0.48-3.32-0.48-5.03c0-2.57,0.41-5.21,1.53-7.71c0.96-2.12,2.43-4.02,4.29-5.45
	c1.86-1.43,4.15-2.4,6.66-2.49l0.39-0.01c3.72,0,6.79,1.82,9.16,4.09c1.32,1.26,2.45,2.67,3.49,4.11
	C1112.69,1121.08,1114.48,1118.38,1116.99,1116.1z M1092.63,903.3c2.91-3.79,4.72-8.88,8.07-13.59c0.8-1.12,2.36-1.37,3.48-0.57
	c1.12,0.8,1.37,2.36,0.57,3.48c-2.84,3.9-4.66,9.04-8.14,13.69c-3.01,3.91-7.62,7.3-13.01,7.36c-1.11,0-2.24-0.16-3.35-0.5
	c-2.72-0.84-4.86-2.65-6.38-4.8c-1.52-2.16-2.46-4.68-2.82-7.22c0,0,0,0.01,0,0.01l0-0.01c0,0,0,0,0,0
	c-0.15-1.04-0.21-2.06-0.21-3.06c0.01-3.85,0.9-7.49,1.71-10.87h0c0.32-1.34,1.67-2.16,3.01-1.84c1.34,0.32,2.16,1.67,1.84,3.01
	c-0.82,3.38-1.57,6.65-1.57,9.7c0,0.8,0.05,1.58,0.16,2.35l0,0.01c0.25,1.79,0.95,3.62,1.96,5.05c1.02,1.44,2.3,2.45,3.77,2.91
	c0.62,0.19,1.24,0.28,1.88,0.28C1086.64,908.75,1090.33,906.37,1092.63,903.3z M1047.79,513.37c4.16-4.36,10.03-7.22,16.15-7.23
	c1.62,0,3.25,0.21,4.85,0.65c4,1.11,7.28,3.72,9.55,6.96c2.27,3.25,3.57,7.18,3.57,11.17c0,2.38-0.48,4.79-1.52,7.04
	c-0.58,1.25-2.07,1.79-3.31,1.21c-1.25-0.58-1.79-2.06-1.21-3.31c0.71-1.54,1.05-3.21,1.06-4.93c0-2.88-0.98-5.88-2.68-8.31
	c-1.7-2.43-4.07-4.26-6.79-5.01c-1.15-0.32-2.33-0.47-3.52-0.47c-4.5-0.02-9.28,2.23-12.53,5.68c-4.19,4.4-6.45,10.65-7.26,17.05h0
	c-0.17,1.37-1.42,2.33-2.79,2.16c-1.37-0.17-2.34-1.42-2.16-2.79C1040.11,526.13,1042.61,518.85,1047.79,513.37z M1034.88,968.56
	l19.83,2.23c-1.91,16.78-9.5,32.55-21.03,44.45c-11.5,11.87-27.34,19.93-45.22,19.93c-5.77,0-11.7-0.84-17.66-2.6
	c-12.73-3.78-23.36-11.97-30.86-22.27c-7.49-10.31-11.98-22.87-11.99-35.92c0-2.72,0.2-5.47,0.61-8.21l0,0l19.73,2.99
	c-0.26,1.72-0.39,3.46-0.39,5.21c-0.02,8.38,2.99,17.07,8.18,24.18c5.18,7.12,12.4,12.53,20.37,14.87c4.18,1.23,8.17,1.78,12,1.79
	c11.77-0.01,22.46-5.23,30.91-13.88C1027.78,992.72,1033.54,980.73,1034.88,968.56z M953.82,457.49c1.71-1.3,3.76-1.85,5.72-1.85
	c2.42,0.01,4.77,0.79,6.74,2.16c0.84,0.6,1.58,1.27,2.25,2c0.92-5.58,2.91-10.97,5.98-15.74l0,0c0.96-1.5,2.16-3.04,3.71-4.31
	c1.53-1.25,3.52-2.25,5.84-2.25l0.32,0.01c1.72,0.06,3.3,0.68,4.53,1.62c1.24,0.94,2.16,2.16,2.86,3.46
	c1.39,2.62,1.96,5.65,1.97,8.44v0.09h0l0,0.08c-0.04,5.72-1.24,11.43-3.52,16.68c-0.55,1.26-2.02,1.85-3.28,1.3
	c-1.26-0.55-1.85-2.02-1.3-3.28c2.01-4.63,3.07-9.69,3.11-14.73l0-0.07l0-0.06c0-1.55-0.27-3.28-0.79-4.74
	c-0.52-1.47-1.29-2.61-2.06-3.19c-0.53-0.39-1.02-0.58-1.72-0.62l-0.12,0c-0.85,0-1.73,0.36-2.69,1.14
	c-0.95,0.77-1.89,1.92-2.66,3.13l0,0c-3.75,5.84-5.79,12.81-5.79,19.76c0,0.5,0.01,1.01,0.04,1.52c0.05,1.23-0.8,2.32-2.01,2.56
	c-1.21,0.24-2.41-0.44-2.83-1.6c-1.06-2.97-2.59-5.62-4.71-7.1c-1.1-0.78-2.56-1.26-3.86-1.25c-1.07,0-1.98,0.29-2.7,0.83
	c-1.16,0.86-1.88,2.59-1.87,4.55c0,0.52,0.05,1.05,0.15,1.55l0,0c0.46,2.48,1.95,4.99,3.63,7.65l0,0c0.73,1.17,0.38,2.71-0.79,3.44
	c-1.17,0.73-2.71,0.38-3.44-0.79c-1.66-2.68-3.58-5.66-4.31-9.36l0,0c-0.16-0.82-0.24-1.66-0.24-2.5
	C949.98,462.95,951.04,459.63,953.82,457.49z M814.17,577.66c2.05-0.84,4.22-1.22,6.37-1.22c1.8,0,3.57,0.32,5.29,0.81
	c-2.84-6.91-5.25-14.28-5.27-21.84c0-2.99,0.39-6.02,1.3-9.01l0,0.01c0.82-2.68,2.18-5.67,5.04-7.62c1.81-1.22,3.86-1.71,5.82-1.7
	c3.87,0.03,7.47,1.7,10.42,3.55c5.38,3.42,10.12,7.81,14.02,12.85c0.26-1.45,0.61-2.91,1.2-4.36c0.82-1.97,2.06-3.83,3.69-5.31
	c1.63-1.48,3.69-2.6,6.07-2.9l1.23-0.08c4.5,0.05,8.24,2.81,10.53,6.16c2.42,3.61,3.31,7.66,4.15,11.3
	c0.31,1.34-0.53,2.68-1.88,2.99c-1.34,0.31-2.68-0.53-2.99-1.88c-0.82-3.64-1.68-7.05-3.43-9.62c-1.54-2.32-4.16-4.01-6.39-3.96
	l-0.62,0.04c-1.18,0.15-2.31,0.71-3.33,1.64c-1.02,0.92-1.88,2.19-2.43,3.52c-1.15,2.76-1.35,6.12-1.48,9.69
	c-0.04,1.11-0.82,2.05-1.89,2.32c-1.07,0.27-2.2-0.21-2.76-1.17c-3.99-6.86-9.68-12.77-16.38-17.03c-2.45-1.58-5.44-2.8-7.74-2.77
	c-1.18,0.01-2.15,0.26-3.04,0.86c-1.36,0.88-2.39,2.74-3.04,4.92l0,0.01c-0.75,2.47-1.08,4.98-1.08,7.55
	c-0.02,8.42,3.66,17.44,7.48,25.95c0.46,1.04,0.17,2.25-0.72,2.96c-0.89,0.71-2.14,0.73-3.05,0.05c-2.49-1.87-5.68-2.95-8.72-2.95
	c-1.56,0-3.08,0.28-4.48,0.85c-3.69,1.47-6.54,5.51-6.49,9.27l0.09,1.19v0.01c0.26,1.75,1.27,3.48,2.72,4.74
	c1.44,1.26,3.26,2.01,4.95,2l1.27-0.14l0,0c1.34-0.3,2.68,0.55,2.97,1.9c0.3,1.35-0.55,2.68-1.9,2.97
	c-0.78,0.17-1.57,0.26-2.35,0.26c-3.1-0.01-5.99-1.28-8.23-3.23c-2.24-1.96-3.89-4.66-4.37-7.75v0.01c-0.1-0.65-0.15-1.3-0.15-1.95
	C804.63,585.45,808.63,579.96,814.17,577.66z M740.99,767.75c1.33-0.37,2.7,0.41,3.07,1.73c0.67,2.41,1.65,5.02,2.89,7.27
	c1.23,2.25,2.74,4.09,4.26,5.09c1.02,0.67,2.01,0.99,3.12,1l1.06-0.1c1.47-0.28,2.78-1.21,3.81-2.66c1.02-1.44,1.67-3.36,1.76-5.16
	l0.02-0.71c0.02-3.59-1.46-7.42-3.1-11.36c-0.53-1.27,0.08-2.73,1.35-3.26c1.27-0.53,2.73,0.08,3.26,1.35
	c1.62,3.96,3.46,8.35,3.48,13.26l-0.02,0.97c-0.15,2.75-1.06,5.48-2.66,7.77c-1.59,2.27-3.96,4.13-6.97,4.7
	c-0.66,0.12-1.33,0.19-1.98,0.19c-2.18,0.01-4.2-0.71-5.87-1.82c-1.68-1.11-3.07-2.6-4.26-4.25c-2.36-3.31-3.94-7.32-4.95-10.93h0
	C738.88,769.5,739.66,768.12,740.99,767.75z M676.23,733.19l0-0.02C676.23,733.17,676.23,733.18,676.23,733.19
	c0.45-2.92,2.16-5.27,4.29-6.88c2.14-1.62,4.74-2.59,7.38-2.83c0.53-0.05,1.07-0.07,1.59-0.07c1.76,0,3.43,0.28,5.06,0.66
	c-3.08-5.51-4.73-11.8-4.73-18.11c0-2.94,0.35-5.88,1.09-8.76c0,0,0,0,0,0l0,0l0,0c0.35-1.36,0.87-2.85,1.77-4.23
	c0.89-1.36,2.29-2.7,4.26-3.18c0.53-0.13,1.05-0.19,1.56-0.19c2.46,0.03,4.31,1.18,5.78,2.13c7.75,5.16,13.74,12.84,16.85,21.61
	c0.46,1.3-0.22,2.73-1.52,3.19c-1.3,0.46-2.72-0.22-3.19-1.52c-2.74-7.74-8.08-14.58-14.91-19.13c-1.19-0.82-2.38-1.33-3.02-1.29
	l-0.37,0.04c-0.41,0.1-0.81,0.38-1.28,1.08c-0.45,0.68-0.85,1.71-1.11,2.73l0,0c-0.63,2.45-0.93,4.97-0.93,7.51
	c0,7.64,2.79,15.34,7.84,21.02c0.76,0.86,0.84,2.12,0.19,3.06c-0.65,0.94-1.85,1.33-2.93,0.93c-3.64-1.36-7.17-2.58-10.43-2.57
	l-1.15,0.05c-1.69,0.15-3.48,0.82-4.81,1.83c-1.34,1.02-2.16,2.27-2.37,3.65l0,0.02l-0.06,0.75c-0.01,1.6,0.78,3.23,2.26,4.86
	c1.46,1.62,3.55,3.11,5.6,4.28h0c1.2,0.68,1.61,2.21,0.93,3.4c-0.68,1.2-2.21,1.61-3.4,0.93c-2.36-1.35-4.83-3.07-6.83-5.26
	c-1.98-2.17-3.55-4.94-3.55-8.22C676.11,734.22,676.15,733.71,676.23,733.19C676.23,733.18,676.23,733.18,676.23,733.19z
	 M650.21,891.99l10.52-23.24c10.51,4.76,28.03,12.9,47.33,22.55c19.31,9.65,40.37,20.78,58.13,31.66
	c11.86,7.28,22.21,14.35,30.01,21.35c4.45,4.07,8.18,7.96,10.94,13.11c1.2,2.31,2.2,5.05,2.53,8.27c0.12,0.77,0.14,1.37,0.14,1.82
	c0,0.03,0.01,0.05,0.01,0.07v0.01c0,0.01,0,0.02,0,0.03c0,0.02-0.01,0.03-0.01,0.05v0.03c0,0.02,0,0.07,0,0.09l-0.01,0.37l0,0.08
	l0,0.03l0,0.02l-0.01,0.13l-0.04,0c-0.09,1.84-0.42,3.53-0.91,4.97c-0.57,1.67-1.28,3.08-2.05,4.36c-1.55,2.55-3.32,4.6-5.27,6.58
	c-3.91,3.92-8.67,7.57-14.27,11.41c-11.16,7.61-25.67,15.76-41.16,23.8c-30.94,16.06-65.61,31.52-82.16,38.61l-10.04-23.45
	c18.56-7.94,61.58-27.21,93.95-45c10.77-5.91,20.37-11.68,27.23-16.57c3.37-2.39,6.02-4.56,7.75-6.21
	c-0.01-0.01-0.01-0.02-0.02-0.03c-2.07-2.37-5.85-5.74-10.75-9.39c-9.81-7.35-24-16-39.3-24.47
	C702.11,916.05,666.88,899.54,650.21,891.99L650.21,891.99z M545.13,933.13L545.13,933.13
	C545.13,933.12,545.13,933.12,545.13,933.13c3.06-5.9,9.44-9.16,15.76-9.17c2.91,0,5.85,0.71,8.45,2.28
	c0.69,0.42,1.32,0.87,1.91,1.31c-0.06-0.63-0.21-1.23-0.21-1.87c-0.02-2.85,0.79-6,3.36-8.2c1.82-1.58,4.1-2.22,6.26-2.22
	c2.61,0.01,5.15,0.87,7.25,2.34c3.67,2.61,5.74,6.36,7.6,9.62c0.68,1.2,0.25,2.72-0.95,3.4c-1.2,0.68-2.72,0.25-3.4-0.95
	c-1.83-3.27-3.66-6.28-6.13-8c-1.25-0.89-2.93-1.44-4.38-1.43c-1.23,0.01-2.23,0.34-3,1c-1.14,0.99-1.61,2.37-1.63,4.43
	c-0.01,2.07,0.6,4.59,1.33,6.86c0.31,0.96,0,2.02-0.77,2.67c-0.77,0.65-1.86,0.77-2.76,0.31c-3.02-1.61-5.03-3.82-7.07-5
	c-1.74-1.05-3.77-1.56-5.87-1.56c-4.61-0.02-9.35,2.53-11.31,6.46l0,0c-0.79,1.54-1.17,3.28-1.18,5.07
	c-0.03,4.88,2.94,9.94,7.27,11.73h0c1.27,0.54,1.86,2,1.32,3.27s-2.01,1.86-3.27,1.32c-6.49-2.81-10.28-9.57-10.31-16.32
	C543.4,937.98,543.94,935.44,545.13,933.13C545.13,933.13,545.13,933.13,545.13,933.13z M474.5,1107.41
	c14.69-47.34,111.61-48.7,151-42.98c50.92,7.39,67.26,79.51,14.86,99.53c-36.74,14.04-82.15,6.34-119.94,1.6
	c-14-1.75-29.25-4.58-38.34-15.37c-4.86-5.77-7.34-13.21-8.62-20.65C472.02,1121.25,472.49,1113.9,474.5,1107.41z M377.45,1458.87
	c-0.51,1.28-1.96,1.9-3.24,1.39c-1.28-0.51-1.9-1.96-1.39-3.24c1.65-4.09,3.15-8.17,3.13-11.88c0-0.81-0.07-1.61-0.21-2.4
	c-0.31-1.72-1.32-3.53-2.65-4.81c-1.34-1.3-2.92-2.01-4.31-2l-1.32,0.21c-1.01,0.32-1.93,0.99-2.82,1.98
	c-0.89,0.98-1.69,2.27-2.41,3.61c-2.47,4.6-4.26,9.58-5.3,14.7c-0.2,0.99-0.98,1.76-1.97,1.95c-0.99,0.19-2-0.23-2.56-1.07
	c-2.11-3.2-5.13-5.82-8.58-7.48c-1.15-0.56-2.47-0.93-3.44-0.92c-0.78,0.01-1.25,0.18-1.63,0.49c-0.6,0.43-1.07,1.82-1.06,3.5
	l-0.01,0.05h0c-0.01,4.42,2.04,8.92,5.39,11.81h0c1.04,0.9,1.15,2.48,0.25,3.52c-0.9,1.04-2.48,1.15-3.52,0.25
	c-4.46-3.89-7.09-9.65-7.11-15.57h0v-0.01v-0.07l0.01-0.07c0.04-2.26,0.43-5.14,2.83-7.23c1.45-1.23,3.24-1.67,4.84-1.66
	c2.07,0.01,3.97,0.64,5.6,1.41c2.72,1.31,5.16,3.12,7.28,5.26c1.14-3.88,2.66-7.65,4.57-11.22c0.82-1.53,1.8-3.14,3.09-4.58
	c1.29-1.44,2.93-2.74,5.02-3.4c0.94-0.3,1.9-0.44,2.84-0.44c3.03,0.01,5.73,1.42,7.78,3.4c2.05,1.99,3.54,4.61,4.09,7.48
	c0.21,1.11,0.3,2.22,0.3,3.31C380.92,1450.14,379.08,1454.74,377.45,1458.87z M396.04,1229.18c-1.24,0-2.34,0.28-3.36,0.9
	c-2.25,1.32-3.61,4.47-3.6,7.69l0.01,0.55v0.01c0.15,3.43,1.59,6.98,3.17,10.68c1.32,3.09,2.64,6.18,3.95,9.27
	c0.38,0.89,0.21,1.93-0.44,2.65c-0.65,0.72-1.66,1-2.59,0.72c-2.75-0.85-5.85-1.54-8.5-1.53c-1.46,0-2.77,0.21-3.83,0.63
	c-1.06,0.43-1.87,1.02-2.56,1.97c-0.69,0.96-1.03,2.16-1.03,3.53c0,1.53,0.46,3.22,1.24,4.63c1.52,2.79,4.23,5.15,7.16,7.57l0,0
	c1.06,0.88,1.2,2.46,0.32,3.51c-0.88,1.06-2.46,1.2-3.51,0.32c-2.92-2.45-6.19-5.12-8.33-9c-1.16-2.12-1.85-4.55-1.86-7.04
	c0-2.2,0.57-4.49,1.96-6.44c1.25-1.77,2.96-2.99,4.77-3.7c1.82-0.72,3.75-0.98,5.67-0.98c1.67,0,3.34,0.2,4.97,0.51
	c-0.66-1.55-1.32-3.1-1.99-4.66c-1.57-3.71-3.34-7.78-3.57-12.41v0.01l-0.02-0.79c0.01-4.45,1.73-9.3,5.99-11.95
	c1.86-1.14,3.94-1.64,5.96-1.63c4.78,0.04,9.25,2.52,12.46,5.74c4.35,4.48,6.88,9.79,10.49,13.44c0.96,0.99,0.94,2.57-0.05,3.53
	c-0.99,0.96-2.57,0.94-3.53-0.05c-4.32-4.5-6.85-9.79-10.48-13.42C402.55,1230.96,398.94,1229.14,396.04,1229.18z M431.95,1587.78
	c-1.07,0.05-2.05-0.58-2.44-1.58c-1.05-2.84-4.52-5.01-7.63-4.97c-1.26,0-2.41,0.32-3.4,0.97c-1.5,0.96-2.42,2.98-2.42,5.12
	c0,1.17,0.28,2.31,0.77,3.2c0.5,0.9,1.16,1.55,2.04,1.94h0c1.26,0.56,1.83,2.03,1.27,3.29c-0.56,1.26-2.03,1.83-3.29,1.27
	c-1.98-0.87-3.47-2.39-4.4-4.11c-0.94-1.73-1.38-3.66-1.38-5.6c0-3.47,1.43-7.13,4.66-9.28c1.89-1.25,4.04-1.8,6.15-1.8
	c3.37,0.03,6.69,1.36,9.17,3.68c1.35-3.8,2.9-7.52,4.84-11.06c1.77-3.2,3.97-6.69,7.62-8.95c1.92-1.17,4.15-1.82,6.42-1.82
	c2.23,0,4.57,0.67,6.43,2.3c1.65,1.44,2.59,3.32,3.05,5.15c0.46,1.84,0.53,3.68,0.53,5.45c0,1.21-0.04,2.38-0.04,3.49
	c-0.01,1.51,0.07,2.86,0.31,4c2.99-3.14,6.47-6.18,11.12-7.55c1.21-0.35,2.46-0.51,3.71-0.51c2.66,0.01,5.31,0.72,7.54,2.16
	c2.22,1.42,4.04,3.69,4.55,6.6c0.11,0.63,0.15,1.24,0.15,1.82c0,1.8-0.39,3.4-0.7,4.8c-0.31,1.34-1.65,2.18-2.99,1.88
	c-1.34-0.31-2.18-1.65-1.88-2.99c0.32-1.39,0.59-2.65,0.58-3.69l-0.08-0.96c-0.24-1.33-1.03-2.41-2.35-3.28
	c-1.3-0.85-3.09-1.36-4.82-1.36c-0.81,0-1.61,0.11-2.33,0.32c-4.2,1.17-7.79,4.86-11.31,8.82c-0.48,0.54-1.18,0.84-1.9,0.83
	c-0.72-0.01-1.41-0.34-1.87-0.9c-2.53-3.1-2.7-6.79-2.71-9.99c0-1.22,0.04-2.39,0.04-3.49c0-1.62-0.09-3.08-0.38-4.22
	c-0.3-1.15-0.73-1.95-1.5-2.63c-0.79-0.69-1.86-1.05-3.13-1.06c-1.28-0.01-2.7,0.4-3.81,1.09c-2.37,1.43-4.22,4.1-5.85,7.09
	c-2.55,4.65-4.58,9.6-6.03,14.71C433.94,1587,433.02,1587.73,431.95,1587.78z"/>
<rect x="809.81" y="967.78" transform="matrix(0.0667 -0.9978 0.9978 0.0667 -209.8338 1711.2356)" fill="#FBF1E5" width="0" height="0.01"/>
<polygon fill="#FBF1E5" points="808.82,962.72 808.85,962.71 808.82,962.72 "/>
<path fill="#55584A" d="M1178.29,1657.16c-5.56-50.96-2.87-102.42,0.52-153.42c5.97-89.89,14.03-179.63,24.18-269.15
	c2.28-20.1,0.35-40.95-23.13-44.48c-132.93-19.99-264.28-22.93-398.14-11.33c-8.78,0.76-18.02,1.67-25.17,6.22
	c-10.66,6.78-13.55,19.43-15.63,30.86c-27.09,148.77-54.26,299.24-40.87,449.46c2.35,26.38,5.42,50.46,17.37,68.29
	c0.01,0.01,0.02,0.03,0.03,0.04c4.43,6.6,10.11,12.34,17.41,17.02c9.86,6.33,22.69,10.75,39.57,12.7
	c72.54,8.41,145.54,12.85,218.57,13.33c31.36,0.21,63.72,3.48,94.78,0.09c31.4-3.43,62.86-5.32,94.17-10.07
	c5.55-0.84,11.36-1.84,15.76-5.33c2.58-2.05,3.99-4.35,4.57-6.78c0.83-3.47-0.07-7.21-1.58-10.92c-1.96-4.82-4.97-9.57-6.81-13.54
	C1183.66,1708.21,1180.89,1681.01,1178.29,1657.16z"/>
<path fill="#55584A" d="M732.75,933.03c15.3,8.47,29.49,17.12,39.3,24.47c4.89,3.64,8.68,7.02,10.75,9.39
	c0.01,0.01,0.01,0.02,0.02,0.03c-1.73,1.65-4.37,3.83-7.75,6.21c-6.86,4.88-16.46,10.66-27.23,16.57
	c-32.37,17.79-75.39,37.06-93.95,45l10.04,23.45c16.55-7.09,51.22-22.55,82.16-38.61c15.49-8.05,29.99-16.19,41.16-23.8
	c5.6-3.84,10.36-7.49,14.27-11.41c1.96-1.98,3.72-4.03,5.27-6.58c0.77-1.28,1.48-2.7,2.05-4.36c0.49-1.45,0.82-3.14,0.91-4.97
	l0.04,0l0.01-0.13l0-0.02l0-0.03l0-0.08l0.01-0.37c0-0.02,0-0.06,0-0.09v-0.03c0-0.02,0.01-0.03,0.01-0.05c0-0.01,0-0.02,0-0.03
	v-0.01c0-0.03,0-0.05-0.01-0.07c0-0.45-0.02-1.06-0.14-1.82c-0.32-3.22-1.33-5.96-2.53-8.27c-2.76-5.15-6.48-9.04-10.94-13.11
	c-7.8-6.99-18.15-14.06-30.01-21.35c-17.76-10.88-38.82-22-58.13-31.66c-19.3-9.65-36.82-17.79-47.33-22.55l-10.52,23.24h0
	C666.88,899.54,702.11,916.05,732.75,933.03z M809.81,967.78L809.81,967.78L809.81,967.78L809.81,967.78L809.81,967.78z
	 M808.82,962.72L808.82,962.72l0.02-0.01L808.82,962.72z"/>
<path fill="#55584A" d="M1175.1,950.04c-1.98,2.26-3.75,4.6-5.21,7.38c-1.43,2.76-2.65,6.08-2.67,10.17v0.01c0,0.01,0,0.02,0,0.03
	l0,0c0,0,0,0,0,0c0,0.48,0.06,1.16,0.18,1.92c0.16,1.39,0.42,2.7,0.8,3.84c1.12,3.22,2.69,5.54,4.37,7.66
	c3.18,3.9,6.99,7.17,11.54,10.63c7.93,5.97,18.12,12.19,29.56,18.59c34.26,19.11,79.69,39.42,99.44,47.89l10.04-23.45
	c-16.08-6.88-50.48-22.24-80.45-37.8c-14.97-7.76-28.88-15.63-38.53-22.23c-4.41-3-7.85-5.74-9.94-7.74
	c1.62-1.86,4.31-4.39,7.83-7.18c6.84-5.44,16.6-11.84,27.62-18.37c33.14-19.65,77.74-40.62,97.14-49.39l-10.52-23.24h0
	c-17.1,7.74-52.67,24.39-84.38,41.97c-15.88,8.81-30.76,17.79-42.22,26.36C1183.97,941.4,1179.07,945.56,1175.1,950.04z"/>
<path fill="#55584A" d="M988.46,1015.22c-3.83,0-7.83-0.55-12-1.79c-7.98-2.34-15.2-7.74-20.37-14.87
	c-5.18-7.11-8.19-15.81-8.18-24.18c0-1.75,0.13-3.5,0.39-5.21l-19.73-2.99l0,0c-0.42,2.74-0.62,5.49-0.61,8.21
	c0.02,13.06,4.5,25.61,11.99,35.92c7.5,10.3,18.13,18.49,30.86,22.27c5.96,1.76,11.89,2.6,17.66,2.6
	c17.88,0.01,33.72-8.06,45.22-19.93c11.53-11.9,19.12-27.68,21.03-44.45l-19.83-2.23c-1.34,12.17-7.1,24.15-15.51,32.77
	C1010.92,1009.99,1000.23,1015.21,988.46,1015.22z"/>
<path fill="#F7BFC4" d="M1312.07,1107.41c-2.01,6.49-2.48,13.83-1.05,22.14c1.28,7.44,3.76,14.88,8.62,20.65
	c9.09,10.79,24.34,13.61,38.34,15.37c37.79,4.73,83.2,12.44,119.94-1.6c52.4-20.03,36.05-92.14-14.86-99.53
	C1423.67,1058.71,1326.75,1060.07,1312.07,1107.41z"/>
<path fill="#F7BFC4" d="M482.07,1150.21c9.1,10.79,24.34,13.61,38.34,15.37c37.79,4.73,83.2,12.44,119.94-1.6
	c52.4-20.03,36.05-92.14-14.86-99.53c-39.39-5.72-136.31-4.36-151,42.98c-2.01,6.49-2.48,13.83-1.04,22.14
	C474.74,1136.99,477.21,1144.43,482.07,1150.21z"/>
<path fill="#F2E3D2" d="M804.73,593.48c0.47,3.09,2.13,5.79,4.37,7.75c2.24,1.96,5.13,3.22,8.23,3.23c0.78,0,1.57-0.08,2.35-0.26
	c1.34-0.3,2.19-1.63,1.9-2.97c-0.3-1.35-1.63-2.19-2.97-1.9l0,0l-1.27,0.14c-1.69,0.01-3.51-0.73-4.95-2
	c-1.44-1.26-2.46-2.99-2.72-4.74v-0.01l-0.09-1.19c-0.05-3.76,2.8-7.8,6.49-9.27c1.4-0.57,2.92-0.85,4.48-0.85
	c3.04-0.01,6.23,1.08,8.72,2.95c0.91,0.68,2.16,0.66,3.05-0.05c0.89-0.71,1.18-1.93,0.72-2.96c-3.82-8.51-7.5-17.53-7.48-25.95
	c0-2.57,0.33-5.08,1.08-7.55l0-0.01c0.65-2.18,1.68-4.05,3.04-4.92c0.9-0.59,1.87-0.85,3.04-0.86c2.3-0.03,5.28,1.19,7.74,2.77
	c6.7,4.26,12.38,10.17,16.38,17.03c0.56,0.96,1.68,1.43,2.76,1.17c1.07-0.27,1.85-1.22,1.89-2.32c0.13-3.57,0.33-6.93,1.48-9.69
	c0.55-1.33,1.41-2.6,2.43-3.52c1.02-0.93,2.15-1.49,3.33-1.64l0.62-0.04c2.23-0.05,4.85,1.64,6.39,3.96
	c1.75,2.57,2.61,5.98,3.43,9.62c0.31,1.34,1.65,2.18,2.99,1.88c1.34-0.31,2.18-1.65,1.88-2.99c-0.85-3.64-1.74-7.68-4.15-11.3
	c-2.29-3.35-6.02-6.11-10.53-6.16l-1.23,0.08c-2.38,0.3-4.44,1.42-6.07,2.9c-1.63,1.49-2.87,3.34-3.69,5.31
	c-0.59,1.45-0.94,2.91-1.2,4.36c-3.89-5.04-8.64-9.43-14.02-12.85c-2.95-1.85-6.55-3.52-10.42-3.55c-1.96-0.01-4.01,0.49-5.82,1.7
	c-2.86,1.95-4.21,4.95-5.04,7.62l0-0.01c-0.91,2.99-1.3,6.01-1.3,9.01c0.02,7.56,2.42,14.93,5.27,21.84
	c-1.72-0.5-3.49-0.81-5.29-0.81c-2.15,0-4.32,0.38-6.37,1.22c-5.55,2.31-9.54,7.79-9.59,13.89
	C804.58,592.19,804.63,592.84,804.73,593.48L804.73,593.48z"/>
<path fill="#F2E3D2" d="M1041.37,536.02c1.37,0.17,2.61-0.79,2.79-2.16h0c0.81-6.4,3.07-12.66,7.26-17.05
	c3.26-3.45,8.03-5.7,12.53-5.68c1.19,0,2.37,0.15,3.52,0.47c2.72,0.75,5.09,2.58,6.79,5.01c1.7,2.43,2.68,5.43,2.68,8.31
	c0,1.72-0.34,3.4-1.06,4.93c-0.58,1.25-0.04,2.73,1.21,3.31c1.25,0.58,2.73,0.04,3.31-1.21c1.04-2.25,1.52-4.65,1.52-7.04
	c-0.01-3.99-1.31-7.91-3.57-11.17c-2.27-3.24-5.54-5.85-9.55-6.96c-1.6-0.44-3.23-0.65-4.85-0.65c-6.12,0.02-12,2.88-16.15,7.23
	c-5.19,5.48-7.68,12.75-8.59,19.86C1039.03,534.6,1040,535.85,1041.37,536.02z"/>
<polygon fill="#F2E3D2" points="1159.32,577.3 1159.32,577.3 1159.32,577.3 "/>
<path fill="#F2E3D2" d="M1135.52,592.99c1.37,0.17,2.61-0.81,2.78-2.17h0c0.74-6.52,6.58-12.46,13.09-13.31l1.05-0.08
	c0.63,0,1.02,0.12,1.22,0.26c0.26,0.14,0.7,0.73,1.1,1.67l0,0c1.36,3.01,2.11,6.3,2.19,9.6c0.03,1.07,0.74,2.01,1.76,2.32
	c1.02,0.32,2.14-0.06,2.76-0.93c4-5.56,9.39-10.15,15.52-13.21c3.38-1.69,7.09-2.85,10.52-2.85c1.38,0,2.71,0.18,4,0.57
	c1.84,0.56,3.63,1.78,4.9,3.33c1.28,1.55,2,3.36,1.99,5.05c0,0.49-0.06,0.98-0.18,1.47c-0.38,1.5-1.28,2.85-2.62,4.14
	c-1.33,1.28-3.06,2.44-4.84,3.5c-3.85,2.28-7.84,4.32-11.95,6.09c-1.27,0.54-1.85,2.01-1.31,3.28c0.55,1.27,2.01,1.85,3.28,1.3
	c4.31-1.85,8.5-3.99,12.53-6.38c1.92-1.15,3.96-2.48,5.75-4.19c1.77-1.7,3.32-3.84,4-6.51l0,0c0.23-0.89,0.33-1.8,0.33-2.69
	c0-3.09-1.26-5.94-3.13-8.22c-1.89-2.28-4.42-4.05-7.3-4.93c-1.81-0.55-3.64-0.79-5.45-0.79c-4.54,0.01-8.9,1.46-12.75,3.37
	c-5.1,2.54-9.71,6.02-13.58,10.19c-0.44-1.91-1.07-3.78-1.87-5.57c-0.54-1.15-1.26-2.68-2.93-3.8l-0.01,0
	c-1.32-0.85-2.74-1.06-3.94-1.06c-0.62,0-1.2,0.06-1.74,0.13c-8.9,1.29-16.21,8.72-17.35,17.65
	C1133.18,591.58,1134.16,592.82,1135.52,592.99z"/>
<path fill="#F2E3D2" d="M871.61,705.81c-1.46-0.93-2.66-2.62-3.96-4.68c-1.32-2.04-2.73-4.43-5.16-6.28
	c-2.15-1.62-4.72-2.33-7.22-2.32c-4.85,0.03-9.69,2.52-12.3,6.86c-1.47,2.48-2.12,5.26-2.12,8c0.01,4.35,1.59,8.65,4.35,12.02
	c0.88,1.06,2.45,1.22,3.51,0.34c1.06-0.88,1.22-2.45,0.34-3.51h0c-2.02-2.44-3.22-5.74-3.21-8.85c0-1.97,0.46-3.84,1.42-5.46
	c1.52-2.64,4.92-4.45,8.01-4.42c1.58,0,3.03,0.43,4.22,1.32c1.44,1.06,2.62,2.87,3.96,4.98c1.34,2.07,2.84,4.46,5.44,6.17
	c1.15,0.75,2.7,0.43,3.45-0.73C873.09,708.11,872.76,706.57,871.61,705.81z"/>
<polygon fill="#F2E3D2" points="690.91,697.2 690.91,697.2 690.91,697.2 "/>
<path fill="#F2E3D2" d="M679.66,742.92c2,2.19,4.47,3.91,6.83,5.26c1.2,0.68,2.72,0.26,3.4-0.93c0.68-1.2,0.26-2.72-0.93-3.4h0
	c-2.05-1.17-4.14-2.66-5.6-4.28c-1.48-1.64-2.26-3.27-2.26-4.86l0.06-0.75l0-0.02c0.21-1.38,1.04-2.63,2.37-3.65
	c1.32-1.01,3.11-1.69,4.81-1.83l1.15-0.05c3.26-0.01,6.79,1.21,10.43,2.57c1.07,0.4,2.28,0.01,2.93-0.93
	c0.65-0.94,0.57-2.21-0.19-3.06c-5.04-5.68-7.84-13.38-7.84-21.02c0-2.54,0.31-5.07,0.93-7.51l0,0c0.26-1.02,0.65-2.05,1.11-2.73
	c0.47-0.7,0.87-0.98,1.28-1.08l0.37-0.04c0.63-0.04,1.83,0.48,3.02,1.29c6.83,4.54,12.17,11.39,14.91,19.13
	c0.46,1.3,1.89,1.98,3.19,1.52c1.3-0.46,1.98-1.89,1.52-3.19c-3.12-8.77-9.1-16.45-16.85-21.61c-1.47-0.95-3.32-2.09-5.78-2.13
	c-0.51,0-1.04,0.06-1.56,0.19c-1.97,0.48-3.38,1.82-4.26,3.18c-0.9,1.38-1.42,2.87-1.77,4.23c-0.74,2.87-1.09,5.82-1.09,8.76
	c0,6.31,1.65,12.6,4.73,18.11c-1.63-0.37-3.3-0.65-5.06-0.66c-0.53,0-1.06,0.02-1.59,0.07c-2.64,0.24-5.23,1.21-7.38,2.83
	c-2.13,1.61-3.85,3.96-4.29,6.88c-0.08,0.53-0.12,1.04-0.12,1.52C676.12,737.98,677.69,740.75,679.66,742.92z"/>
<path fill="#F2E3D2" d="M676.23,733.19C676.23,733.18,676.23,733.18,676.23,733.19c0-0.01,0-0.02,0-0.02L676.23,733.19z"/>
<path fill="#F2E3D2" d="M1289.73,770.62c1.29,0.48,2.73-0.18,3.21-1.48h0c1.99-5.41,5.72-10.2,10.47-13.47
	c1.32-0.92,2.59-1.56,3.69-1.71l0.6-0.04c1.17,0,2.43,0.49,3.57,1.42c1.14,0.92,2.11,2.26,2.64,3.63c0.74,1.89,0.99,4.04,0.99,6.36
	c0,1.56-0.11,3.19-0.23,4.85c-0.08,1.07,0.54,2.07,1.54,2.48c1,0.41,2.14,0.13,2.84-0.68c3.62-4.24,7.25-8.26,11.69-10
	c1.31-0.53,2.81-0.81,4.29-0.81c1.61,0,3.18,0.33,4.46,0.96c1.29,0.63,2.27,1.51,2.92,2.69c0.52,0.96,0.77,2.03,0.77,3.19
	c0.02,2.39-1.16,5.16-2.94,7.11c-2.71,3.03-6.85,5-11.2,6.94c-1.26,0.57-1.82,2.04-1.25,3.3c0.56,1.26,2.04,1.82,3.3,1.25
	c4.35-1.97,9.18-4.1,12.86-8.15c2.53-2.82,4.21-6.55,4.23-10.46c0-1.89-0.42-3.82-1.39-5.59l0-0.01c-1.2-2.18-3.05-3.77-5.11-4.77
	c-2.07-1-4.36-1.46-6.64-1.46c-2.1,0-4.2,0.39-6.14,1.16c-3.62,1.46-6.49,3.83-9.05,6.4c-0.1-2.18-0.43-4.4-1.29-6.6
	c-0.87-2.19-2.29-4.17-4.14-5.68c-1.84-1.49-4.15-2.53-6.72-2.54l-1.3,0.09c-2.36,0.34-4.25,1.47-5.82,2.54
	c-5.61,3.87-9.96,9.46-12.32,15.85C1287.78,768.7,1288.44,770.14,1289.73,770.62z"/>
<path fill="#F2E3D2" d="M1130.05,740c1.37,0.11,2.58-0.91,2.69-2.28h0c0.07-0.83,0.4-1.68,1-2.62c0.59-0.94,1.43-1.92,2.33-2.92
	c1.53-1.71,3.12-3.39,4.75-4.6c1.64-1.22,3.24-1.95,4.92-2.05l0.38-0.01c2.83-0.05,5.96,2.09,7.8,4.98c1.97,3.05,2.9,6.97,3.8,11.09
	c0.29,1.35,1.63,2.2,2.97,1.9c1.35-0.3,2.2-1.63,1.9-2.97c-0.92-4.13-1.89-8.65-4.47-12.72l0,0c-2.55-3.92-6.81-7.22-12-7.27
	l-0.68,0.02c-2.97,0.18-5.5,1.45-7.61,3.03c-2.12,1.59-3.89,3.51-5.47,5.27c-0.93,1.04-1.95,2.19-2.83,3.57
	c-0.87,1.37-1.61,3-1.76,4.89C1127.65,738.68,1128.68,739.89,1130.05,740z"/>
<path fill="#F2E3D2" d="M1463.97,1376.69c-3.7,3.76-6.56,8.29-8.46,13.19c-0.62-0.73-1.29-1.41-2.04-2
	c-2.52-1.99-5.66-3.2-8.95-3.21c-0.89,0-1.8,0.09-2.69,0.29c-3.25,0.71-5.98,2.65-7.91,5.14c-1.92,2.5-3.09,5.6-3.09,8.83
	c0,1,0.12,2.01,0.36,3c0.33,1.34,1.67,2.16,3.01,1.83c1.34-0.33,2.16-1.68,1.83-3.01h0c-0.14-0.6-0.22-1.21-0.22-1.82
	c0-2,0.76-4.11,2.06-5.79c1.3-1.69,3.08-2.9,5.01-3.31c0.54-0.12,1.08-0.17,1.63-0.17c2.03-0.01,4.16,0.79,5.86,2.13
	c1.7,1.34,2.9,3.18,3.28,5.15c0.22,1.17,1.24,2.01,2.43,2.02s2.22-0.82,2.46-1.99c1.3-6.29,4.47-12.22,8.98-16.79
	c1.8-1.84,3.76-3.24,5.62-3.51l0.82-0.06c1.71-0.01,3.46,0.85,5.01,2.42c1.53,1.55,2.74,3.75,3.26,5.88
	c1.26,4.89,0.41,10.62,1.07,16.75c0.11,1,0.82,1.83,1.78,2.11c0.96,0.28,2-0.04,2.64-0.82c2.68-3.3,6.83-5.49,11.06-5.85l0.68-0.03
	c0.57,0,0.9,0.1,1.01,0.18c0.16,0.06,0.56,0.58,0.87,1.48c0.48,1.33,0.71,2.76,0.71,4.21c0.01,3.6-1.49,7.25-4.05,9.65
	c-1,0.94-1.05,2.52-0.11,3.53c0.94,1,2.52,1.05,3.53,0.11c3.65-3.45,5.61-8.36,5.62-13.29c0-1.99-0.32-3.99-1.01-5.9
	c-0.47-1.26-1.18-2.92-2.97-4.05c-1.26-0.76-2.55-0.9-3.6-0.9l-1.11,0.05c-3.75,0.33-7.29,1.76-10.34,3.92
	c-0.03-3.9,0.1-8.05-0.94-12.35c-0.76-3.02-2.34-5.91-4.55-8.17c-2.2-2.24-5.16-3.9-8.56-3.91c-0.53,0-1.06,0.04-1.59,0.12
	C1468.76,1372.34,1466.08,1374.57,1463.97,1376.69z"/>
<path fill="#F2E3D2" d="M1504.41,1537.88c-0.99,0-2.01,0.15-3,0.49c-2.26,0.77-3.93,2.26-5.24,3.7c-3.63,4.03-5.74,9.31-5.88,14.74
	c-0.03,1.38,1.06,2.52,2.43,2.56c1.38,0.03,2.52-1.06,2.56-2.43h0c0.1-4.2,1.78-8.4,4.6-11.52c1.01-1.13,2.1-1.98,3.13-2.32
	c0.45-0.15,0.92-0.23,1.41-0.23c1.73-0.03,3.88,1.03,5.31,2.59c1.93,2.05,3.16,5.04,4.39,8.27c0.36,0.93,1.23,1.56,2.23,1.6
	c0.99,0.04,1.92-0.51,2.35-1.41c2.3-4.75,5-9.3,8.08-13.58c1.47-2.06,3.23-4.1,5.09-5.53c1.87-1.45,3.75-2.26,5.63-2.25l0.75,0.04
	c1.9,0.21,3.6,1.31,4.95,3.06c1.34,1.74,2.22,4.09,2.38,6.31l0.04,1.15c0.02,4.3-1.74,8.85-3.65,13.47
	c-0.52,1.27,0.09,2.73,1.36,3.26c1.28,0.52,2.73-0.09,3.26-1.36c1.89-4.64,4.01-9.74,4.03-15.36c0-0.5-0.02-1-0.05-1.51
	c-0.24-3.22-1.42-6.4-3.39-8.99c-1.96-2.57-4.84-4.58-8.35-4.98l-1.31-0.07c-3.35,0-6.27,1.43-8.69,3.3
	c-2.42,1.89-4.42,4.26-6.08,6.56c-2.21,3.08-4.17,6.33-6,9.64c-0.86-1.74-1.91-3.46-3.34-5.01
	C1511.11,1539.66,1507.94,1537.91,1504.41,1537.88z"/>
<path fill="#F2E3D2" d="M1276.62,1685.1c-1.97-1.19-4.23-1.84-6.49-1.85c-2.63,0-5.33,0.83-7.46,2.71
	c-2.52,2.25-3.65,5.46-3.65,8.57c0.01,3.66,1.55,7.43,4.83,9.69c1.14,0.78,2.69,0.48,3.47-0.66c0.77-1.14,0.48-2.69-0.66-3.47l0,0
	c-1.65-1.1-2.66-3.29-2.65-5.57c0-1.93,0.71-3.73,1.98-4.84c1.06-0.95,2.54-1.45,4.14-1.45c2.56-0.01,5.12,1.34,6.12,3.34
	c0.51,0.98,1.59,1.5,2.67,1.3c1.08-0.2,1.9-1.09,2.02-2.18c0.7-6.59,1.66-13.06,5.26-17.41c1.96-2.44,5.53-4.11,8.57-4.08
	c2.06,0.01,3.75,0.66,4.99,2.04c0.96,1.08,1.55,2.46,1.93,4.21c0.58,2.6,0.58,5.87,0.99,9.17c0.21,1.65,0.54,3.33,1.2,4.96
	c0.65,1.62,1.66,3.2,3.15,4.48c1.04,0.9,2.62,0.78,3.52-0.27c0.9-1.05,0.78-2.62-0.27-3.52c-1.07-0.92-1.7-2.09-2.15-3.68
	c-0.68-2.37-0.73-5.55-1.05-8.86c-0.35-3.28-1-6.88-3.58-9.81c-2.32-2.61-5.58-3.72-8.72-3.71c-4.68,0.03-9.37,2.22-12.43,5.91
	C1278.74,1674.57,1277.39,1679.92,1276.62,1685.1z"/>
<path fill="#F2E3D2" d="M1395.45,1653.03c-1.95-1.46-4.32-2.44-6.88-2.45c-1.05,0-2.13,0.17-3.18,0.55
	c-2.85,1.04-4.71,3.1-6.24,4.84c-3.85,4.43-7.25,9.25-10.12,14.37c-0.67,1.2-0.24,2.72,0.96,3.4c1.2,0.67,2.72,0.24,3.4-0.96h0
	c2.7-4.82,5.9-9.37,9.53-13.54c1.41-1.64,2.79-2.95,4.15-3.42c0.49-0.18,0.99-0.26,1.5-0.26c1.23-0.01,2.63,0.51,3.89,1.45
	c1.25,0.94,2.32,2.28,2.91,3.67c0.87,2.02,1.17,4.31,1.17,6.8c0,1.96-0.19,4.04-0.4,6.14c-0.14,1.37,0.87,2.59,2.24,2.73
	c1.37,0.13,2.59-0.87,2.73-2.24c0.21-2.11,0.42-4.34,0.42-6.63c0-2.88-0.34-5.87-1.57-8.76
	C1398.98,1656.47,1397.41,1654.5,1395.45,1653.03z"/>
<path fill="#F2E3D2" d="M1260.46,1369.28c0-1.7-0.13-3.43-0.62-5.14c-0.49-1.71-1.38-3.41-2.81-4.82c-2.07-2.07-4.82-2.96-7.45-2.95
	c-4.38,0.03-8.69,2.18-11.44,5.68c-3.06,3.99-4.17,8.69-4.78,13.21c-0.56-0.7-1.18-1.45-2.02-2.22c-2.02-1.81-4.6-2.65-7.14-2.65
	c-2.74,0-5.53,0.97-7.6,3.04c-2.04,2.06-2.98,4.82-2.98,7.53c0,2.57,0.85,5.18,2.7,7.2c0.93,1.01,2.51,1.08,3.52,0.15
	c1.01-0.93,1.08-2.51,0.15-3.53h0c-0.88-0.95-1.39-2.36-1.39-3.83c0-1.55,0.57-3.05,1.54-4.02c0.97-0.99,2.49-1.57,4.06-1.57
	c1.45,0,2.84,0.49,3.79,1.36c0.68,0.61,1.44,1.65,2.42,2.77c0.97,1.1,2.28,2.39,4.29,2.94c0.71,0.19,1.47,0.05,2.07-0.36
	c0.6-0.42,0.99-1.09,1.06-1.81c0.51-5.76,1.26-11.37,4.25-15.17c1.67-2.22,4.86-3.78,7.49-3.74c1.6,0.01,2.91,0.48,3.93,1.49
	c0.77,0.78,1.23,1.62,1.54,2.68c0.31,1.05,0.43,2.33,0.43,3.76c0.01,2.41-0.36,5.23-0.36,8.18c0,1.85,0.15,3.77,0.71,5.68
	c0.23,0.78,0.82,1.4,1.6,1.66c0.77,0.26,1.62,0.13,2.28-0.36c3.1-2.29,6.44-4.24,9.94-5.83c1.29-0.6,2.46-0.99,3.29-0.98l0.39,0.03
	c0.69,0.1,1.13,0.34,1.6,0.77c0.69,0.65,1.35,1.92,1.74,3.52c0.41,1.59,0.58,3.45,0.58,5.13c0.01,1.38,1.13,2.49,2.51,2.48
	c1.38-0.01,2.49-1.13,2.48-2.51c-0.02-2.65-0.32-5.69-1.42-8.44c-0.55-1.37-1.32-2.69-2.45-3.78c-1.12-1.09-2.65-1.89-4.38-2.12
	l-1.06-0.07c-2.14,0.01-3.9,0.78-5.35,1.42c-2.59,1.17-5.04,2.59-7.44,4.12c-0.01-0.24-0.04-0.47-0.04-0.72
	C1260.1,1374.94,1260.46,1372.13,1260.46,1369.28z"/>
<path fill="#F2E3D2" d="M1326.33,1412.4c-2.01-1.64-4.52-2.77-7.26-2.78c-0.93,0-1.87,0.13-2.8,0.42c-2.18,0.66-3.89,1.99-5.16,3.49
	c-1.92,2.27-3.08,4.91-4.29,7.28c-0.28,0.56-0.56,1.11-0.85,1.63c-0.56-0.82-1.21-1.57-1.96-2.17c-1.89-1.5-4.28-2.42-6.81-2.44
	c-1.12,0-2.27,0.19-3.37,0.64c-3.08,1.24-5.29,3.59-6.8,6.19c-1.52,2.61-2.43,5.53-3,8.29c-0.28,1.35,0.6,2.67,1.95,2.94
	c1.35,0.27,2.67-0.6,2.94-1.95h0c0.48-2.39,1.28-4.83,2.41-6.77c1.15-1.95,2.56-3.36,4.36-4.08c0.45-0.18,0.95-0.28,1.5-0.28
	c1.24-0.01,2.69,0.53,3.7,1.34c1.03,0.83,1.51,1.79,1.49,2.5l-0.17,0.82c-0.43,1.06-0.08,2.29,0.85,2.96
	c0.93,0.67,2.2,0.62,3.08-0.12c3.26-2.81,4.75-6.63,6.35-9.69c0.78-1.54,1.57-2.89,2.41-3.87c0.86-0.99,1.71-1.61,2.84-1.97
	c0.45-0.14,0.89-0.2,1.34-0.2c1.32-0.01,2.8,0.58,4.1,1.65c1.3,1.06,2.38,2.58,2.91,4.12c0.57,1.62,0.79,3.36,0.8,5.22
	c0,2.6-0.46,5.41-0.96,8.25c-0.24,1.36,0.67,2.65,2.03,2.89c1.36,0.24,2.65-0.67,2.89-2.03c0.5-2.87,1.03-5.94,1.03-9.11
	c0-2.26-0.27-4.59-1.07-6.87C1329.92,1416.25,1328.35,1414.05,1326.33,1412.4z"/>
<path fill="#F2E3D2" d="M564.86,1642.59c0.14,1.17,1.08,2.09,2.26,2.19c1.18,0.1,2.27-0.64,2.61-1.77
	c2.31-7.74,6.99-14.8,13.21-19.96c0.46-0.38,0.91-0.71,1.26-0.9l0.71-0.24l0.07,0l0.52,0.25l0.94,0.9c3.38,3.81,5.26,9,5.25,14.14
	c0,2.12-0.32,4.22-0.95,6.22c-0.42,1.31,0.3,2.72,1.62,3.14c1.31,0.42,2.72-0.31,3.14-1.62c0.8-2.51,1.19-5.13,1.19-7.74
	c-0.01-6.33-2.26-12.65-6.5-17.44c-0.47-0.53-1.03-1.12-1.77-1.65c-0.73-0.53-1.67-1.01-2.81-1.15l-0.69-0.04
	c-1.2,0-2.23,0.38-3.06,0.83c-0.84,0.45-1.52,0.98-2.09,1.45c-5.44,4.51-9.75,10.28-12.65,16.71c-0.51-0.6-1.06-1.16-1.65-1.66
	c-2.28-1.89-5.18-3.06-8.23-3.07c-1.1,0-2.21,0.16-3.29,0.49c-5.33,1.72-8.49,6.94-8.52,12.16c0,1.81,0.4,3.65,1.29,5.34
	c0.64,1.22,2.15,1.68,3.37,1.04c1.22-0.64,1.68-2.15,1.04-3.37h0c-0.48-0.91-0.71-1.93-0.71-3.01c-0.03-3.2,2.18-6.59,5.02-7.4
	c0.58-0.18,1.19-0.27,1.81-0.27c1.72-0.01,3.6,0.71,5.03,1.92C563.71,1639.3,564.67,1640.91,564.86,1642.59z"/>
<path fill="#F2E3D2" d="M446.12,1564.18c1.12-0.69,2.53-1.1,3.81-1.09c1.27,0,2.35,0.37,3.13,1.06c0.77,0.69,1.2,1.48,1.5,2.63
	c0.29,1.14,0.38,2.6,0.38,4.22c0,1.1-0.04,2.27-0.04,3.49c0.02,3.2,0.19,6.9,2.71,9.99c0.46,0.56,1.15,0.89,1.87,0.9
	c0.72,0.01,1.42-0.29,1.9-0.83c3.52-3.96,7.11-7.65,11.31-8.82c0.73-0.21,1.52-0.32,2.33-0.32c1.73-0.01,3.52,0.5,4.82,1.36
	c1.31,0.87,2.11,1.94,2.35,3.28l0.08,0.96c0,1.04-0.26,2.3-0.58,3.69c-0.31,1.34,0.53,2.68,1.88,2.99c1.34,0.31,2.68-0.53,2.99-1.88
	c0.31-1.4,0.7-3,0.7-4.8c0-0.58-0.04-1.19-0.15-1.82c-0.51-2.91-2.33-5.18-4.55-6.6c-2.23-1.44-4.88-2.15-7.54-2.16
	c-1.25,0-2.5,0.16-3.71,0.51c-4.65,1.37-8.12,4.41-11.12,7.55c-0.24-1.15-0.32-2.49-0.31-4c0-1.11,0.04-2.28,0.04-3.49
	c0-1.77-0.07-3.61-0.53-5.45c-0.46-1.83-1.39-3.7-3.05-5.15c-1.86-1.63-4.2-2.3-6.43-2.3c-2.27,0.01-4.5,0.66-6.42,1.82
	c-3.65,2.26-5.85,5.74-7.62,8.95c-1.94,3.54-3.49,7.26-4.84,11.06c-2.48-2.32-5.81-3.66-9.17-3.68c-2.1,0-4.26,0.55-6.15,1.8
	c-3.22,2.16-4.65,5.82-4.66,9.28c0,1.93,0.44,3.87,1.38,5.6c0.94,1.72,2.42,3.24,4.4,4.11c1.26,0.56,2.73-0.01,3.29-1.27
	c0.56-1.26-0.01-2.73-1.27-3.29h0c-0.88-0.39-1.54-1.04-2.04-1.94c-0.49-0.89-0.77-2.04-0.77-3.2c0-2.14,0.92-4.16,2.42-5.12
	c0.99-0.65,2.14-0.97,3.4-0.97c3.11-0.04,6.58,2.13,7.63,4.97c0.39,1,1.37,1.63,2.44,1.58c1.07-0.05,1.98-0.78,2.28-1.81
	c1.45-5.11,3.48-10.05,6.03-14.71C441.9,1568.27,443.75,1565.61,446.12,1564.18z"/>
<path fill="#F2E3D2" d="M376.55,1434.35c-2.05-1.98-4.75-3.39-7.78-3.4c-0.94,0-1.9,0.14-2.84,0.44c-2.09,0.67-3.73,1.96-5.02,3.4
	c-1.29,1.45-2.27,3.06-3.09,4.58c-1.91,3.57-3.43,7.34-4.57,11.22c-2.12-2.14-4.56-3.95-7.28-5.26c-1.63-0.77-3.53-1.4-5.6-1.41
	c-1.6-0.01-3.39,0.44-4.84,1.66c-2.4,2.09-2.79,4.97-2.83,7.23l-0.01,0.07v0.07v0.01h0c0.01,5.92,2.64,11.68,7.11,15.57
	c1.04,0.9,2.61,0.79,3.52-0.25c0.9-1.04,0.79-2.62-0.25-3.52h0c-3.35-2.89-5.4-7.39-5.39-11.81h0l0.01-0.05
	c-0.01-1.68,0.45-3.07,1.06-3.5c0.38-0.32,0.85-0.48,1.63-0.49c0.97-0.01,2.29,0.36,3.44,0.92c3.45,1.66,6.46,4.28,8.58,7.48
	c0.56,0.84,1.57,1.26,2.56,1.07c0.99-0.19,1.77-0.96,1.97-1.95c1.04-5.12,2.83-10.09,5.3-14.7c0.72-1.34,1.52-2.63,2.41-3.61
	c0.89-0.99,1.81-1.66,2.82-1.98l1.32-0.21c1.39-0.01,2.98,0.7,4.31,2c1.34,1.28,2.34,3.08,2.65,4.81c0.15,0.79,0.21,1.58,0.21,2.4
	c0.02,3.71-1.49,7.79-3.13,11.88c-0.51,1.28,0.11,2.73,1.39,3.24c1.28,0.51,2.73-0.11,3.24-1.39c1.63-4.13,3.47-8.73,3.49-13.73
	c0-1.09-0.09-2.2-0.3-3.31C380.09,1438.96,378.6,1436.34,376.55,1434.35z"/>
<path fill="#F2E3D2" d="M622.48,1385.35l-0.68,0.22c-0.41,0.01-1.11-0.2-1.82-0.68c-0.71-0.47-1.4-1.18-1.84-1.86
	c-0.75-1.13-1.44-2.59-2.36-4.11c-0.92-1.5-2.1-3.11-3.99-4.24c-1.41-0.85-2.98-1.23-4.49-1.22c-2.28,0.01-4.43,0.81-6.25,2.04
	c-1.83,1.24-3.36,2.94-4.34,4.97c-1.38,2.87-1.76,5.91-1.76,8.81c0,2.2,0.22,4.34,0.43,6.36c0.14,1.37,1.37,2.36,2.74,2.22
	c1.37-0.15,2.36-1.37,2.22-2.74l0,0c-0.21-1.99-0.4-3.97-0.4-5.83c0-2.47,0.33-4.71,1.27-6.64c0.55-1.14,1.51-2.24,2.64-3.01
	c1.13-0.77,2.39-1.19,3.45-1.18c0.71,0,1.33,0.16,1.94,0.52c0.83,0.49,1.54,1.34,2.28,2.55c0.74,1.21,1.45,2.71,2.44,4.24
	c0.83,1.27,1.94,2.4,3.25,3.28c1.31,0.87,2.84,1.51,4.59,1.53c1.22,0.01,2.54-0.37,3.63-1.18c1.11-0.81,1.35-2.38,0.54-3.49
	C625.15,1384.78,623.59,1384.54,622.48,1385.35z"/>
<path fill="#F2E3D2" d="M567.75,1332.69c0.7-1.19,0.31-2.72-0.87-3.42c-1.62-0.88-3.07-3.44-4.68-6.21
	c-0.83-1.37-1.73-2.78-3.02-3.99c-1.27-1.2-3.08-2.16-5.19-2.21l-0.24,0c-2.22,0-4.09,0.98-5.51,2.18c-1.43,1.21-2.52,2.69-3.38,4.1
	c-3.01,4.97-4.84,10.63-5.29,16.43c-0.11,1.37,0.92,2.57,2.29,2.68c1.37,0.11,2.57-0.92,2.68-2.29h0c0.39-5.01,1.97-9.94,4.58-14.23
	c0.67-1.11,1.5-2.18,2.33-2.87c0.85-0.71,1.59-1.01,2.3-1.01l0.07,0l0.02,0c0.8,0.04,1.27,0.27,1.96,0.88
	c1.01,0.91,2.09,2.8,3.31,4.89c1.25,2.06,2.69,4.4,5.24,5.94C565.52,1334.26,567.05,1333.87,567.75,1332.69z"/>
<polygon fill="#F2E3D2" points="553.98,1316.87 553.98,1316.87 554,1316.87 "/>
<path fill="#F2E3D2" d="M418.94,1246.9c0.99-0.96,1.01-2.54,0.05-3.53c-3.61-3.65-6.15-8.96-10.49-13.44
	c-3.21-3.23-7.68-5.7-12.46-5.74c-2.02,0-4.1,0.49-5.96,1.63c-4.26,2.65-5.98,7.5-5.99,11.95l0.02,0.79v-0.01
	c0.23,4.63,2,8.69,3.57,12.41c0.66,1.55,1.32,3.1,1.99,4.66c-1.62-0.3-3.3-0.5-4.97-0.51c-1.92,0-3.84,0.26-5.67,0.98
	c-1.82,0.71-3.52,1.94-4.77,3.7c-1.4,1.95-1.97,4.24-1.96,6.44c0,2.49,0.7,4.92,1.86,7.04c2.15,3.88,5.42,6.56,8.33,9
	c1.06,0.88,2.63,0.74,3.51-0.32c0.88-1.06,0.74-2.63-0.32-3.51l0,0c-2.93-2.43-5.64-4.78-7.16-7.57c-0.78-1.41-1.24-3.11-1.24-4.63
	c0-1.37,0.34-2.57,1.03-3.53c0.69-0.95,1.5-1.54,2.56-1.97c1.05-0.42,2.36-0.63,3.83-0.63c2.65-0.01,5.74,0.68,8.5,1.53
	c0.93,0.28,1.94,0.01,2.59-0.72c0.65-0.72,0.82-1.75,0.44-2.65c-1.32-3.09-2.63-6.18-3.95-9.27c-1.59-3.7-3.03-7.25-3.17-10.68
	v-0.01l-0.01-0.55c-0.01-3.21,1.35-6.37,3.6-7.69c1.02-0.62,2.13-0.9,3.36-0.9c2.9-0.04,6.51,1.78,8.9,4.25
	c3.62,3.63,6.16,8.93,10.48,13.42C416.38,1247.84,417.95,1247.86,418.94,1246.9z"/>
<path fill="#F2E3D2" d="M499.04,1220.33c-1.64-1.59-3.59-3.36-6.27-4.3c-1.17-0.4-2.36-0.59-3.53-0.59c-3.02,0.01-5.82,1.21-8.11,3
	c-2.29,1.8-4.12,4.21-5.18,6.94c-1.14,2.95-1.51,5.99-1.51,8.95c0,3.29,0.45,6.51,0.88,9.55c0.19,1.36,1.46,2.31,2.82,2.12
	c1.36-0.2,2.31-1.46,2.12-2.82h0c-0.43-3.02-0.84-6.02-0.83-8.84c0-2.56,0.32-4.95,1.18-7.15c0.7-1.82,2.02-3.58,3.6-4.81
	c1.59-1.24,3.39-1.94,5.03-1.94c0.64,0,1.27,0.1,1.9,0.32c1.46,0.49,2.92,1.68,4.41,3.15c3.6,3.54,6.72,7.58,9.21,11.97
	c0.68,1.2,2.2,1.62,3.4,0.94c1.2-0.68,1.62-2.2,0.94-3.4C506.37,1228.6,502.97,1224.19,499.04,1220.33z"/>
<path fill="#F2E3D2" d="M553.71,956.79c1.27,0.54,2.73-0.05,3.27-1.32s-0.05-2.73-1.32-3.27h0c-4.33-1.79-7.3-6.85-7.27-11.73
	c0-1.79,0.38-3.53,1.18-5.07l0,0c1.97-3.93,6.7-6.48,11.31-6.46c2.1,0,4.14,0.51,5.87,1.56c2.04,1.18,4.04,3.39,7.07,5
	c0.9,0.46,1.99,0.34,2.76-0.31c0.77-0.65,1.08-1.7,0.77-2.67c-0.73-2.27-1.34-4.79-1.33-6.86c0.02-2.06,0.5-3.44,1.63-4.43
	c0.76-0.66,1.77-1,3-1c1.45-0.01,3.13,0.54,4.38,1.43c2.47,1.72,4.3,4.73,6.13,8c0.68,1.2,2.2,1.62,3.4,0.95
	c1.2-0.68,1.62-2.2,0.95-3.4c-1.86-3.27-3.93-7.01-7.6-9.62c-2.1-1.47-4.64-2.33-7.25-2.34c-2.16-0.01-4.44,0.64-6.26,2.22
	c-2.56,2.21-3.38,5.36-3.36,8.2c0,0.63,0.14,1.24,0.21,1.87c-0.6-0.44-1.23-0.89-1.91-1.31c-2.6-1.57-5.54-2.28-8.45-2.28
	c-6.32,0.02-12.7,3.28-15.75,9.17c-1.19,2.32-1.73,4.85-1.73,7.35C543.43,947.22,547.22,953.98,553.71,956.79z"/>
<polygon fill="#F2E3D2" points="545.13,933.13 545.13,933.12 545.13,933.12 "/>
<path fill="#F2E3D2" d="M1098.49,1115.6l-0.39,0.01c-2.51,0.09-4.8,1.06-6.66,2.49c-1.86,1.43-3.34,3.33-4.29,5.45
	c-1.12,2.49-1.53,5.14-1.53,7.71c0,1.72,0.19,3.41,0.48,5.03c0.25,1.35,1.55,2.25,2.9,2.01c1.36-0.25,2.25-1.55,2.01-2.9h0
	c-0.25-1.38-0.4-2.78-0.4-4.14c0-2.04,0.33-3.97,1.1-5.66c0.61-1.37,1.61-2.64,2.78-3.54c1.18-0.9,2.48-1.42,3.8-1.46l0.22,0
	c2.02,0,3.86,0.96,5.73,2.72c1.84,1.74,3.54,4.2,5,6.61c0.47,0.77,1.31,1.22,2.21,1.19c0.9-0.03,1.71-0.54,2.13-1.33
	c2.01-3.84,3.99-7.47,6.78-9.96c2.04-1.86,4.81-3.09,7.24-3.07c0.78,0,1.53,0.12,2.26,0.36c1.44,0.49,2.7,1.49,3.72,2.86
	c1.02,1.37,1.76,3.1,2.12,4.84c0.27,1.29,0.38,2.63,0.38,4.02c0,2.47-0.36,5.08-0.74,7.76c-0.19,1.36,0.76,2.63,2.12,2.82
	c1.37,0.19,2.63-0.76,2.82-2.12c0.37-2.68,0.78-5.52,0.78-8.45c0-1.65-0.13-3.34-0.48-5.03c-0.5-2.41-1.5-4.77-3-6.8
	c-1.5-2.02-3.55-3.73-6.12-4.61c-1.28-0.43-2.58-0.63-3.86-0.63c-4.01,0.02-7.74,1.82-10.57,4.35c-2.51,2.27-4.31,4.98-5.85,7.69
	c-1.04-1.44-2.17-2.85-3.49-4.11C1105.28,1117.42,1102.21,1115.6,1098.49,1115.6z"/>
<path fill="#F2E3D2" d="M1025.57,1144.84c-2.68-3.12-6.31-5.5-10.64-6.1c-0.55-0.08-1.1-0.11-1.64-0.11
	c-3.62,0.01-6.99,1.57-9.52,3.89c-2.52,2.33-4.32,5.52-4.33,9.1c0,1.33,0.26,2.69,0.82,3.99c0.54,1.27,2.01,1.85,3.28,1.31
	s1.85-2.01,1.31-3.28h0c-0.29-0.68-0.42-1.34-0.42-2.02c-0.02-1.8,1-3.85,2.72-5.43c1.71-1.58,4.02-2.58,6.15-2.57l0.95,0.07
	c2.9,0.4,5.47,2.01,7.55,4.42c2.07,2.4,3.58,5.57,4.22,8.74c0.28,1.35,1.6,2.22,2.95,1.94c1.35-0.28,2.22-1.6,1.94-2.95
	C1030.08,1151.85,1028.26,1147.96,1025.57,1144.84z"/>
<path fill="#F2E3D2" d="M860.38,1106.03l-0.49,0.02c-2.64,0.17-4.9,1.26-6.81,2.68c0.12-1.38,0.28-2.75,0.28-4.13
	c0-7.44-1.74-14.87-5.15-21.51c-0.36-0.64-0.88-1.88-2.48-2.68c-0.61-0.28-1.25-0.4-1.82-0.4c-1.48,0.03-2.48,0.59-3.24,1.01
	c-5.64,3.27-9.28,8.44-11.76,14.09c-1.68,3.83-2.85,7.91-3.81,11.94c-1.13-1.45-2.34-2.85-3.64-4.15c-1.18-1.17-2.54-2.35-4.13-3.29
	c-1.58-0.93-3.44-1.62-5.5-1.62l-1.02,0.06c-2.86,0.32-5.13,2.03-6.56,4.12c-1.44,2.11-2.2,4.65-2.2,7.22
	c0,0.71,0.06,1.43,0.19,2.13v0c1.01,5.45,4.58,9.43,7.63,12.91c0.91,1.03,2.49,1.13,3.52,0.22c1.03-0.91,1.13-2.49,0.22-3.52h0
	c-3.07-3.43-5.84-6.85-6.45-10.49v-0.01l-0.11-1.24c-0.01-1.55,0.5-3.21,1.32-4.39c0.84-1.19,1.84-1.86,3.01-2l0.46-0.03
	c0.92,0,1.92,0.32,2.98,0.94c1.06,0.62,2.14,1.53,3.13,2.51c2.4,2.4,4.49,5.12,6.2,8.06c0.52,0.9,1.54,1.38,2.56,1.21
	c1.03-0.17,1.83-0.95,2.04-1.97c1.14-5.67,2.51-11.56,4.74-16.6c2.24-5.06,5.26-9.21,9.7-11.78l0.45-0.22l0.15,0.25
	c3.04,5.9,4.6,12.57,4.6,19.22c0,3.8-0.51,7.59-1.53,11.24c-0.33,1.17,0.23,2.41,1.33,2.93c1.1,0.52,2.41,0.18,3.11-0.82
	c1.26-1.8,2.69-3.55,4.21-4.8c1.53-1.26,3.07-2,4.72-2.1l0.18-0.01c0.91-0.02,2.07,0.49,2.93,1.35c0.88,0.84,1.35,1.93,1.32,2.58
	l-0.38,1.01c-0.91,1.04-0.8,2.61,0.24,3.52c1.04,0.91,2.62,0.8,3.52-0.24c1.09-1.24,1.62-2.82,1.61-4.29
	c-0.02-2.44-1.2-4.56-2.83-6.16C865.14,1107.2,862.92,1106.05,860.38,1106.03z"/>
<path fill="#F2E3D2" d="M1434.59,1029.06c1.36,0.19,2.63-0.75,2.82-2.12h0c0.51-3.64,2.54-7.07,5.42-9.56
	c2.88-2.5,6.56-4.02,10.24-4.01h0.05l0.02,0l0.95,0.07l0.3,0.11l0.21,0.29l0.38,0.94c1.42,4.15,2.15,8.54,2.15,12.93
	c0,1.2-0.06,2.4-0.16,3.6c-0.12,1.37,0.89,2.58,2.26,2.71c1.37,0.12,2.58-0.89,2.71-2.26c0.12-1.34,0.18-2.69,0.18-4.04
	c0-4.94-0.81-9.87-2.42-14.55c-0.35-0.95-0.8-2.42-2.3-3.59c-1.55-1.14-3.13-1.17-4.23-1.19h0.02l-0.11,0
	c-5.04,0.01-9.81,2.03-13.51,5.23c-3.69,3.2-6.38,7.64-7.09,12.63C1432.28,1027.61,1433.22,1028.87,1434.59,1029.06z"/>
<path fill="#F2E3D2" d="M1182.9,779.3l1.06,0.13c1.39,0.36,2.49,1.31,3.53,2.92c1.02,1.59,1.83,3.72,2.49,5.8
	c0.42,1.31,1.82,2.04,3.13,1.62c1.31-0.42,2.04-1.82,1.62-3.13c-0.72-2.23-1.61-4.73-3.04-6.97c-1.41-2.22-3.51-4.3-6.5-5.07
	c-0.77-0.2-1.54-0.29-2.3-0.29c-3.7,0.03-6.91,2.01-9.1,4.58c-2.55,3.06-3.71,6.63-4.79,9.8c-0.44,1.31,0.26,2.72,1.57,3.16
	c1.31,0.44,2.72-0.26,3.16-1.57h0c1.06-3.18,2.12-6.12,3.88-8.19C1179.01,780.43,1181.17,779.26,1182.9,779.3z"/>
<path fill="#F2E3D2" d="M950.22,468.51c0.73,3.7,2.65,6.68,4.31,9.36c0.73,1.17,2.27,1.52,3.44,0.79c1.17-0.73,1.52-2.27,0.79-3.44
	l0,0c-1.68-2.66-3.17-5.17-3.63-7.65l0,0c-0.1-0.5-0.15-1.03-0.15-1.55c0-1.96,0.71-3.69,1.87-4.55c0.71-0.54,1.63-0.83,2.7-0.83
	c1.3-0.01,2.76,0.46,3.86,1.25c2.13,1.48,3.66,4.14,4.71,7.1c0.42,1.16,1.62,1.84,2.83,1.6c1.21-0.24,2.06-1.33,2.01-2.56
	c-0.02-0.51-0.04-1.01-0.04-1.52c0-6.94,2.03-13.92,5.79-19.76l0,0c0.77-1.2,1.7-2.36,2.66-3.13c0.97-0.78,1.84-1.14,2.69-1.14
	l0.12,0c0.69,0.03,1.19,0.23,1.72,0.62c0.78,0.57,1.55,1.72,2.06,3.19c0.52,1.46,0.79,3.19,0.79,4.74l0,0.06l0,0.07
	c-0.04,5.05-1.1,10.1-3.11,14.73c-0.55,1.26,0.03,2.73,1.3,3.28c1.27,0.55,2.73-0.03,3.28-1.3c2.27-5.25,3.47-10.95,3.52-16.68
	l0-0.08h0v-0.09c-0.01-2.79-0.58-5.82-1.97-8.44c-0.7-1.31-1.62-2.52-2.86-3.46c-1.23-0.94-2.81-1.57-4.53-1.62l-0.32-0.01
	c-2.32,0-4.31,1-5.84,2.25c-1.55,1.26-2.75,2.81-3.71,4.31l0,0c-3.06,4.77-5.06,10.17-5.98,15.74c-0.67-0.72-1.41-1.4-2.25-2
	c-1.96-1.38-4.32-2.15-6.74-2.16c-1.96,0-4.01,0.54-5.72,1.85c-2.78,2.14-3.84,5.46-3.84,8.52
	C949.98,466.86,950.06,467.69,950.22,468.51L950.22,468.51z"/>
<path fill="#F2E3D2" d="M1504.99,1234.63c1.35,0.28,2.67-0.59,2.95-1.94c0.69-3.37,1.21-7.14,1.22-10.87
	c0-3.61-0.47-7.21-1.87-10.41c-1.38-3.19-3.83-6-7.44-7.46c-1.67-0.69-3.42-0.99-5.14-0.99c-4.31,0.02-8.43,1.84-11.61,4.51
	c-4.35,3.69-7,8.56-9.43,13.06c-0.65,1.21-0.2,2.73,1.01,3.38c1.21,0.65,2.73,0.2,3.38-1.01l0,0c2.4-4.47,4.83-8.73,8.26-11.61
	c2.38-2.03,5.55-3.35,8.39-3.33c1.13,0,2.22,0.2,3.24,0.62c2.31,0.97,3.74,2.56,4.77,4.85c1,2.28,1.45,5.24,1.45,8.41
	c0,3.27-0.47,6.74-1.11,9.86C1502.77,1233.03,1503.64,1234.35,1504.99,1234.63z"/>
<polygon fill="#F2E3D2" points="1071.04,901.16 1071.04,901.16 1071.04,901.15 "/>
<path fill="#F2E3D2" d="M1077.94,905.5c-1.01-1.43-1.71-3.25-1.96-5.05l0-0.01c-0.11-0.76-0.16-1.55-0.16-2.35
	c-0.01-3.05,0.75-6.33,1.57-9.7c0.32-1.34-0.5-2.69-1.84-3.01c-1.34-0.32-2.68,0.5-3.01,1.84h0c-0.81,3.39-1.7,7.02-1.71,10.87
	c0,1,0.06,2.02,0.21,3.06c0.36,2.55,1.3,5.07,2.82,7.22c1.51,2.15,3.66,3.96,6.38,4.8c1.11,0.34,2.24,0.5,3.35,0.5
	c5.39-0.06,10-3.45,13.01-7.36c3.48-4.65,5.3-9.79,8.14-13.69c0.8-1.12,0.55-2.68-0.57-3.48c-1.12-0.8-2.68-0.55-3.48,0.57
	c-3.34,4.7-5.16,9.8-8.07,13.59c-2.29,3.07-5.99,5.45-9.03,5.39c-0.64,0-1.26-0.09-1.88-0.28
	C1080.24,907.95,1078.96,906.94,1077.94,905.5z"/>
<path fill="#F2E3D2" d="M739.25,770.83c1.01,3.61,2.59,7.62,4.95,10.93c1.18,1.65,2.57,3.13,4.26,4.25
	c1.67,1.11,3.69,1.83,5.87,1.82c0.65,0,1.31-0.06,1.98-0.19c3.01-0.57,5.38-2.43,6.97-4.7c1.6-2.28,2.51-5.01,2.66-7.77l0.02-0.97
	c-0.02-4.91-1.86-9.3-3.48-13.26c-0.53-1.27-1.98-1.88-3.26-1.35c-1.27,0.52-1.88,1.98-1.35,3.26c1.64,3.94,3.12,7.77,3.1,11.36
	l-0.02,0.71c-0.09,1.8-0.74,3.72-1.76,5.16c-1.03,1.45-2.33,2.39-3.81,2.66l-1.06,0.1c-1.12-0.01-2.1-0.33-3.12-1
	c-1.52-0.99-3.03-2.84-4.26-5.09c-1.24-2.24-2.22-4.86-2.89-7.27c-0.37-1.33-1.75-2.1-3.07-1.73
	C739.66,768.12,738.88,769.5,739.25,770.83L739.25,770.83z"/>
</svg>
